<svg xmlns="http://www.w3.org/2000/svg" width="30" height="18" viewBox="0 0 30 18">
    <path fill="#eaebed" fill-rule="evenodd" d="M8.936 13.992H4.88c-3.12 0-4.368-1.248-4.368-3.984V1.584c0-.6.264-.864.864-.864h3.72c.6 0 .864.264.864.864V8.16c0 .504.288.816.744.816h2.232V1.584c0-.6.264-.864.864-.864h3.696c.6 0 .864.264.864.864v15.552c0 .6-.264.864-.864.864H9.8c-.6 0-.864-.264-.864-.864v-3.144zM24.112 18h-3.888c-.6 0-.864-.264-.864-.864V5.352h-3.528c-.6 0-.864-.264-.864-.864V1.584c0-.6.264-.864.864-.864h12.672c.6 0 .864.264.864.864v2.904c0 .6-.264.864-.864.864h-3.528v11.784c0 .6-.264.864-.864.864z"/>
</svg>
