<svg xmlns="http://www.w3.org/2000/svg" width="210" height="77" viewBox="0 0 210 77">
    <g fill="none" fill-rule="evenodd">
        <rect width="210" height="77" fill="#424242" rx="4.8"/>
        <g fill="#FFF">
            <path d="M44.79 37.766c-.047-5.145 4.21-7.649 4.404-7.765-2.41-3.518-6.147-3.998-7.46-4.036-3.138-.33-6.182 1.879-7.78 1.879-1.631 0-4.093-1.847-6.746-1.793-3.415.052-6.609 2.03-8.36 5.102-3.616 6.264-.92 15.468 2.544 20.53 1.733 2.48 3.758 5.248 6.408 5.15 2.592-.106 3.56-1.653 6.69-1.653 3.1 0 4.009 1.654 6.711 1.592 2.783-.045 4.535-2.491 6.207-4.993 2.002-2.842 2.806-5.64 2.838-5.784-.066-.022-5.404-2.061-5.457-8.229zM39.684 22.634c1.394-1.745 2.349-4.119 2.084-6.528-2.019.09-4.543 1.397-5.996 3.104-1.286 1.504-2.435 3.969-2.138 6.287 2.267.169 4.595-1.145 6.05-2.863z"/>
        </g>
        <g fill="#FFF">
            <path d="M82.31 56.478h-3.624l-1.985-6.241h-6.898l-1.89 6.24h-3.528l6.835-21.246h4.221l6.868 21.247zm-6.207-8.86l-1.795-5.547c-.19-.567-.545-1.902-1.07-4.003h-.064c-.21.904-.546 2.238-1.008 4.003l-1.763 5.548h5.7zM99.886 48.63c0 2.605-.703 4.664-2.11 6.176-1.26 1.346-2.826 2.018-4.694 2.018-2.017 0-3.465-.725-4.348-2.174h-.064v8.07H85.27V46.2c0-1.637-.043-3.318-.126-5.043h2.991l.19 2.429h.064c1.134-1.83 2.856-2.743 5.166-2.743 1.806 0 3.314.713 4.52 2.142 1.21 1.43 1.812 3.312 1.812 5.644zm-3.465.124c0-1.491-.335-2.72-1.008-3.688-.736-1.01-1.723-1.514-2.961-1.514-.84 0-1.602.281-2.283.835-.683.559-1.13 1.289-1.339 2.192-.105.422-.158.767-.158 1.038v2.554c0 1.115.341 2.055 1.024 2.823.683.768 1.57 1.151 2.662 1.151 1.28 0 2.278-.495 2.991-1.481.715-.989 1.072-2.291 1.072-3.91zM117.495 48.63c0 2.605-.703 4.664-2.112 6.176-1.259 1.346-2.824 2.018-4.692 2.018-2.017 0-3.466-.725-4.346-2.174h-.064v8.07h-3.402V46.2c0-1.637-.043-3.318-.126-5.043h2.992l.19 2.429h.064c1.132-1.83 2.854-2.743 5.166-2.743 1.804 0 3.312.713 4.521 2.142 1.205 1.43 1.81 3.312 1.81 5.644zm-3.465.124c0-1.491-.337-2.72-1.01-3.688-.735-1.01-1.72-1.514-2.96-1.514-.84 0-1.601.281-2.284.835-.683.559-1.128 1.289-1.337 2.192-.104.422-.158.767-.158 1.038v2.554c0 1.115.341 2.055 1.021 2.823.683.767 1.57 1.151 2.664 1.151 1.282 0 2.279-.495 2.992-1.481.715-.989 1.072-2.291 1.072-3.91zM137.183 50.52c0 1.807-.627 3.277-1.886 4.412-1.383 1.24-3.309 1.86-5.783 1.86-2.285 0-4.116-.44-5.503-1.323l.788-2.837c1.494.903 3.132 1.357 4.917 1.357 1.282 0 2.279-.29 2.995-.869.713-.578 1.069-1.354 1.069-2.321 0-.862-.294-1.589-.882-2.178-.586-.589-1.564-1.137-2.93-1.643-3.717-1.387-5.574-3.42-5.574-6.092 0-1.747.65-3.179 1.954-4.293 1.3-1.116 3.032-1.673 5.198-1.673 1.932 0 3.537.337 4.819 1.009l-.85 2.774c-1.197-.65-2.55-.977-4.064-.977-1.197 0-2.132.296-2.802.883-.566.526-.85 1.166-.85 1.924 0 .84.324 1.534.974 2.08.567.505 1.596 1.05 3.09 1.64 1.826.736 3.168 1.597 4.03 2.583.86.984 1.29 2.215 1.29 3.684zM148.43 43.712h-3.75v7.438c0 1.892.66 2.837 1.985 2.837.608 0 1.112-.052 1.51-.158l.095 2.585c-.67.25-1.553.377-2.645.377-1.344 0-2.394-.41-3.151-1.23-.755-.82-1.135-2.196-1.135-4.13V43.71h-2.233v-2.555h2.233V38.35l3.341-1.009v3.814h3.75v2.558zM165.346 48.691c0 2.355-.673 4.289-2.017 5.8-1.409 1.557-3.278 2.333-5.61 2.333-2.246 0-4.034-.745-5.368-2.236-1.334-1.492-2-3.374-2-5.643 0-2.374.685-4.318 2.062-5.83 1.374-1.514 3.228-2.27 5.559-2.27 2.246 0 4.054.745 5.418 2.238 1.305 1.448 1.956 3.317 1.956 5.608zm-3.53.11c0-1.412-.3-2.624-.912-3.635-.713-1.223-1.733-1.833-3.054-1.833-1.367 0-2.406.612-3.119 1.833-.61 1.013-.912 2.243-.912 3.7 0 1.412.301 2.624.912 3.633.736 1.223 1.763 1.833 3.09 1.833 1.298 0 2.317-.623 3.053-1.865.627-1.03.943-2.254.943-3.665zM176.402 44.15a5.902 5.902 0 0 0-1.072-.093c-1.197 0-2.122.452-2.773 1.357-.566.798-.85 1.807-.85 3.025v8.039h-3.4l.032-10.496c0-1.766-.043-3.373-.128-4.823h2.963l.124 2.931h.095c.358-1.007.925-1.818 1.7-2.427.758-.547 1.577-.82 2.459-.82.314 0 .598.022.85.062v3.246zM191.615 48.093c0 .61-.04 1.124-.125 1.544h-10.204c.04 1.513.533 2.67 1.48 3.469.86.714 1.972 1.071 3.338 1.071 1.511 0 2.89-.24 4.13-.725l.532 2.363c-1.449.633-3.159.947-5.133.947-2.374 0-4.237-.7-5.593-2.096-1.353-1.397-2.031-3.273-2.031-5.626 0-2.31.63-4.235 1.892-5.769 1.321-1.638 3.106-2.457 5.353-2.457 2.206 0 3.877.82 5.011 2.457.898 1.301 1.35 2.91 1.35 4.822zm-3.244-.883c.023-1.01-.2-1.88-.66-2.617-.589-.947-1.494-1.42-2.711-1.42-1.112 0-2.017.462-2.707 1.388-.567.736-.903 1.62-1.007 2.647h7.085v.002z"/>
        </g>
        <g fill="#FFF">
            <path d="M74.978 22.16c0 1.88-.563 3.294-1.688 4.244-1.041.876-2.522 1.315-4.44 1.315-.95 0-1.764-.041-2.446-.124V17.327a18.036 18.036 0 0 1 2.88-.217c1.827 0 3.204.398 4.132 1.193 1.04.899 1.562 2.184 1.562 3.857zm-1.763.046c0-1.218-.322-2.152-.966-2.803-.645-.65-1.586-.976-2.826-.976-.526 0-.975.035-1.347.109v7.805c.206.032.583.047 1.13.047 1.28 0 2.267-.356 2.963-1.068.695-.712 1.046-1.75 1.046-3.114zM84.326 23.801c0 1.158-.33 2.106-.99 2.85-.693.765-1.61 1.146-2.756 1.146-1.104 0-1.983-.365-2.639-1.1-.654-.732-.981-1.657-.981-2.771 0-1.166.337-2.122 1.013-2.864.676-.743 1.586-1.115 2.731-1.115 1.104 0 1.992.366 2.663 1.099.638.712.96 1.631.96 2.755zm-1.734.055c0-.695-.15-1.29-.449-1.787-.35-.6-.85-.9-1.5-.9-.67 0-1.181.3-1.532.9-.3.497-.449 1.102-.449 1.817 0 .694.15 1.29.449 1.786.362.6.866.9 1.517.9.638 0 1.139-.304 1.5-.916.31-.506.464-1.106.464-1.8zM96.86 20.1l-2.353 7.527h-1.532L92 24.358a24.474 24.474 0 0 1-.605-2.431h-.03a17.812 17.812 0 0 1-.605 2.431l-1.035 3.269h-1.55L85.964 20.1h1.718l.85 3.578c.206.847.376 1.653.511 2.416h.03a26.8 26.8 0 0 1 .621-2.4l1.067-3.592h1.363l1.023 3.516c.247.857.448 1.682.603 2.478h.046c.113-.775.284-1.6.51-2.478l.913-3.516h1.642V20.1zM105.528 27.627h-1.672v-4.311c0-1.328-.504-1.993-1.516-1.993-.496 0-.896.182-1.208.548a1.944 1.944 0 0 0-.464 1.29v4.464h-1.672v-5.374c0-.66-.02-1.378-.06-2.154h1.469l.078 1.177h.046c.195-.366.485-.667.867-.909.453-.28.96-.423 1.515-.423.702 0 1.286.227 1.75.682.578.557.867 1.39.867 2.494v4.509zM110.139 27.627h-1.67v-10.98h1.67zM119.983 23.801c0 1.158-.33 2.106-.991 2.85-.693.765-1.612 1.146-2.756 1.146-1.105 0-1.984-.365-2.638-1.1-.655-.732-.982-1.657-.982-2.771 0-1.166.337-2.122 1.014-2.864.676-.743 1.585-1.115 2.73-1.115 1.105 0 1.99.366 2.664 1.099.638.712.959 1.631.959 2.755zm-1.736.055c0-.695-.15-1.29-.449-1.787-.349-.6-.85-.9-1.498-.9-.673 0-1.184.3-1.533.9-.3.497-.448 1.102-.448 1.817 0 .694.15 1.29.448 1.786.362.6.866.9 1.517.9.639 0 1.138-.304 1.498-.916.312-.506.465-1.106.465-1.8zM128.075 27.627h-1.502l-.124-.867h-.046c-.514.691-1.246 1.037-2.197 1.037-.71 0-1.285-.228-1.717-.681-.392-.412-.589-.925-.589-1.533 0-.92.383-1.62 1.154-2.106.769-.485 1.85-.723 3.243-.712v-.14c0-.992-.52-1.487-1.562-1.487-.741 0-1.396.187-1.96.557l-.34-1.098c.699-.433 1.562-.65 2.58-.65 1.965 0 2.951 1.038 2.951 3.113v2.772c0 .752.037 1.35.109 1.795zm-1.736-2.587v-1.16c-1.845-.032-2.767.474-2.767 1.516 0 .393.106.687.321.883.215.196.49.294.817.294.367 0 .71-.117 1.023-.348a1.426 1.426 0 0 0 .606-1.185zM137.576 27.627h-1.484l-.078-1.209h-.047c-.474.92-1.28 1.38-2.415 1.38-.906 0-1.661-.357-2.26-1.069-.598-.712-.896-1.636-.896-2.771 0-1.218.324-2.205.975-2.959.63-.702 1.402-1.053 2.321-1.053 1.01 0 1.717.34 2.119 1.021h.032v-4.32h1.673V25.6c0 .733.02 1.408.06 2.028zm-1.733-3.174v-1.255c0-.217-.016-.393-.046-.527a1.906 1.906 0 0 0-.605-1.014 1.643 1.643 0 0 0-1.118-.41c-.624 0-1.112.247-1.471.744-.356.496-.537 1.13-.537 1.904 0 .744.171 1.348.514 1.813.362.494.85.742 1.462.742.548 0 .987-.206 1.32-.62.323-.381.48-.84.48-1.377zM151.875 23.801c0 1.158-.33 2.106-.99 2.85-.693.765-1.609 1.146-2.756 1.146-1.102 0-1.981-.365-2.638-1.1-.655-.732-.982-1.657-.982-2.771 0-1.166.337-2.122 1.013-2.864.677-.743 1.586-1.115 2.733-1.115 1.103 0 1.992.366 2.662 1.099.638.712.958 1.631.958 2.755zm-1.732.055c0-.695-.15-1.29-.449-1.787-.352-.6-.85-.9-1.5-.9-.67 0-1.181.3-1.534.9-.3.497-.448 1.102-.448 1.817 0 .694.15 1.29.448 1.786.362.6.866.9 1.517.9.638 0 1.141-.304 1.502-.916.307-.506.464-1.106.464-1.8zM160.866 27.627h-1.67v-4.311c0-1.328-.505-1.993-1.518-1.993-.496 0-.897.182-1.206.548-.31.366-.464.797-.464 1.29v4.464h-1.674v-5.374c0-.66-.02-1.378-.059-2.154h1.468l.078 1.177h.046c.196-.366.487-.667.867-.909a2.83 2.83 0 0 1 1.517-.423c.7 0 1.284.227 1.748.682.58.557.867 1.39.867 2.494v4.509zM172.118 21.354h-1.84v3.656c0 .93.326 1.394.974 1.394.3 0 .549-.026.745-.079l.043 1.27c-.33.124-.764.186-1.298.186-.661 0-1.175-.2-1.546-.603-.374-.402-.559-1.08-.559-2.03v-3.794h-1.1V20.1h1.1v-1.379l1.639-.495V20.1h1.84v1.255h.002zM180.97 27.627h-1.674v-4.28c0-1.348-.504-2.024-1.514-2.024-.775 0-1.305.392-1.595 1.174-.05.164-.078.366-.078.602v4.526h-1.67V16.647h1.67v4.536h.032c.526-.825 1.28-1.237 2.259-1.237.692 0 1.265.226 1.72.681.566.567.85 1.41.85 2.524v4.476zM190.1 23.508c0 .3-.022.552-.062.758h-5.014c.022.744.262 1.31.726 1.703.424.352.972.527 1.642.527.741 0 1.418-.118 2.027-.356l.262 1.163c-.713.31-1.552.464-2.524.464-1.165 0-2.082-.343-2.746-1.03-.667-.686-.997-1.607-.997-2.763 0-1.135.308-2.08.929-2.834.647-.805 1.523-1.207 2.629-1.207 1.082 0 1.903.402 2.459 1.207.448.638.67 1.429.67 2.368zm-1.595-.433c.013-.497-.097-.925-.324-1.285-.29-.465-.732-.698-1.33-.698-.546 0-.991.227-1.33.682-.278.362-.443.795-.497 1.3h3.481z"/>
        </g>
    </g>
</svg>
