<svg xmlns="http://www.w3.org/2000/svg" width="158" height="158" viewBox="0 0 158 158">
    <path fill="#1983B5" fill-rule="nonzero" d="M79 0C35.37 0 0 35.37 0 79s35.37 79 79 79 79-35.37 79-79S122.63 0 79 0zm0 15.29c35.21 0 63.71 28.495 63.71 63.71 0 35.21-28.495 63.71-63.71 63.71-35.21 0-63.71-28.495-63.71-63.71 0-35.21 28.495-63.71 63.71-63.71zm44.662 41.497l-7.179-7.237a3.822 3.822 0 0 0-5.406-.022L66.05 94.194 47.003 74.993a3.823 3.823 0 0 0-5.406-.022l-7.237 7.178a3.823 3.823 0 0 0-.021 5.407l28.918 29.152a3.822 3.822 0 0 0 5.405.022l54.978-54.537a3.823 3.823 0 0 0 .022-5.406z"/>
</svg>
