<svg xmlns="http://www.w3.org/2000/svg" width="210" height="77" viewBox="0 0 210 77">
    <defs>
        <linearGradient id="a" x1="60.157%" x2="33.558%" y1="91.848%" y2="-59.589%">
            <stop offset="0%" stop-color="#D6FFA1"/>
            <stop offset="32.64%" stop-color="#93E2A7"/>
            <stop offset="100%" stop-color="#00A3B5"/>
        </linearGradient>
        <linearGradient id="b" x1="-32.172%" x2="80.167%" y1="-129.736%" y2="113.998%">
            <stop offset="0%" stop-color="#FF177B"/>
            <stop offset="67.21%" stop-color="#FFA976"/>
            <stop offset="100%" stop-color="#FFEC73"/>
        </linearGradient>
        <linearGradient id="c" x1="50.819%" x2="-.029%" y1="74.663%" y2="-29.336%">
            <stop offset="0%" stop-color="#63FFD4"/>
            <stop offset="48.54%" stop-color="#32A0BA"/>
            <stop offset="83.49%" stop-color="#1262A9"/>
            <stop offset="100%" stop-color="#064AA2"/>
        </linearGradient>
        <linearGradient id="d" x1="119.508%" x2="-23.112%" y1="35.535%" y2="61.013%">
            <stop offset="0%" stop-color="#FF4521"/>
            <stop offset="34.11%" stop-color="#D43E65"/>
            <stop offset="79.35%" stop-color="#9F36B9"/>
            <stop offset="100%" stop-color="#8A33DB"/>
        </linearGradient>
    </defs>
    <g fill="none" fill-rule="evenodd">
        <rect width="210" height="77" fill="#424242" rx="4.8"/>
        <path d="M31.98 48.927l5.371-5.454-5.37 5.454-17.313-17.325L31.98 48.927 14.668 66.252 31.98 48.927l5.45 5.454z"/>
        <path fill="url(#a)" d="M23.725 12.192L2.645.642C2.084.32 1.523.24 1.042.4l17.313 17.245 5.37-5.454z" transform="translate(13.626 31.281)"/>
        <path fill="url(#b)" d="M23.805 23.1l7.214-3.93c1.443-.802 1.443-2.086 0-2.888l-7.214-4.01-5.45 5.374 5.45 5.454z" transform="translate(13.626 31.281)"/>
        <path fill="url(#c)" d="M1.042.32C.401.562 0 1.204 0 2.167v30.96c0 .963.4 1.604 1.042 1.845l17.313-17.325L1.042.32z" transform="translate(13.626 31.281)"/>
        <path fill="url(#d)" d="M1.042 34.97c.48.161 1.042.081 1.603-.24l21.08-11.63-5.37-5.454L1.042 34.97z" transform="translate(13.626 31.281)"/>
        <g fill="#FFF">
            <path d="M188.136 62.563l9.04-20.855h-2.944l-4.182 10.398h-.059l-4.298-10.398h-2.945l5.948 13.559-3.356 7.296h2.796M175.534 41.708c-3.617 0-5.353 2.161-5.853 3.474l2.47 1.051c.5-1.343 1.942-2.072 3.442-2.072 2.03 0 3.765 1.313 3.765 3.474v.409c-.559-.322-1.97-.877-3.912-.877-3.383 0-6.324 1.752-6.324 4.993 0 2.978 2.441 4.788 5.383 4.788 2.47 0 3.941-1.256 4.735-2.452h.118v1.984h2.589V47.84c0-4.029-2.883-6.13-6.413-6.13zm-.588 12.788c-1.412 0-3-.76-3-2.278 0-1.314 1.118-2.831 3.971-2.831 2.294 0 3.441.933 3.441.933 0 2.336-2.265 4.176-4.412 4.176zM165.115 36.094h2.404v20.854h-2.404zM156.188 36.094h-7.104v20.854h2.679V48.5h4.425c3.464 0 6.522-2.562 6.522-6.203 0-3.64-3.058-6.204-6.522-6.204zm.058 9.845h-4.483v-7.282h4.483c2.387 0 3.727 1.98 3.727 3.64 0 1.66-1.34 3.642-3.727 3.642zM130.237 49.846c-.081-2.709 2.13-4.09 3.72-4.09 1.241 0 2.292.611 2.643 1.487l-6.363 2.603zm3.963 7.224c3.263 0 5.15-1.965 5.932-3.107l-2.426-1.594c-.81 1.17-1.915 1.94-3.506 1.94-1.59 0-2.724-.718-3.451-2.126l9.518-3.877-.323-.797c-.594-1.567-2.4-4.462-6.094-4.462-3.667 0-6.714 2.842-6.714 7.012 0 3.93 3.02 7.011 7.064 7.011zM122.498 56.645h3.127v-20.61h-3.127zM113.572 63.365c-3.451 0-5.528-2.284-6.31-4.144l2.724-1.115c.485 1.142 1.671 2.497 3.586 2.497 2.346 0 3.802-1.435 3.802-4.117v-1.01h-.108c-.701.85-2.05 1.594-3.748 1.594-3.56 0-6.822-3.054-6.822-6.984 0-3.958 3.263-7.04 6.822-7.04 1.699 0 3.047.745 3.748 1.568h.108v-1.142h2.966V56.06c0 5.18-3.1 7.304-6.768 7.304zm.216-9.057c2.13 0 3.802-1.78 3.802-4.222 0-2.47-1.672-4.277-3.802-4.277-2.158 0-3.964 1.806-3.964 4.277 0 2.443 1.806 4.222 3.964 4.222zM98.256 57.07c-3.937 0-7.145-2.974-7.145-7.011 0-4.064 3.208-7.012 7.145-7.012 3.937 0 7.146 2.948 7.146 7.012 0 4.037-3.209 7.011-7.146 7.011zm0-2.762c2.157 0 4.018-1.753 4.018-4.249 0-2.524-1.861-4.25-4.018-4.25s-4.018 1.726-4.018 4.25c0 2.496 1.86 4.25 4.018 4.25zM82.67 57.07c-3.936 0-7.146-2.974-7.146-7.011 0-4.064 3.21-7.012 7.146-7.012 3.937 0 7.146 2.948 7.146 7.012 0 4.037-3.209 7.011-7.146 7.011zm0-2.762c2.157 0 4.018-1.753 4.018-4.249 0-2.524-1.86-4.25-4.018-4.25-2.157 0-4.017 1.726-4.017 4.25 0 2.496 1.86 4.25 4.017 4.25zM64.118 57.07c3.29 0 5.77-1.062 7.712-3.054 1.996-1.965 2.616-4.727 2.616-6.959a9.56 9.56 0 0 0-.162-1.858H64.118v2.974h7.227c-.216 1.673-.782 2.895-1.645 3.745-1.052 1.036-2.697 2.178-5.582 2.178a7.87 7.87 0 0 1-7.928-7.915 7.87 7.87 0 0 1 7.928-7.914c2.4 0 4.153.929 5.447 2.124l2.13-2.098c-1.806-1.7-4.206-3.001-7.577-3.001-6.094 0-11.217 4.887-11.217 10.89 0 6.001 5.123 10.888 11.217 10.888z"/>
        </g>
        <path fill="#FFF" d="M60.896 24.322a2.913 2.913 0 0 1-1.061.843c-.27.131-.593.242-.971.332-.378.09-.821.135-1.33.135a4.106 4.106 0 0 1-1.576-.295 3.413 3.413 0 0 1-1.23-.852 3.894 3.894 0 0 1-.798-1.372c-.19-.544-.285-1.164-.285-1.862v-.601c0-.694.085-1.313.256-1.858a3.89 3.89 0 0 1 .74-1.382 3.136 3.136 0 0 1 1.177-.858c.463-.197.989-.295 1.578-.295.555 0 1.04.072 1.452.216a2.99 2.99 0 0 1 1.046.605c.284.26.507.567.67.924.163.358.271.75.326 1.175h-1.553a2.677 2.677 0 0 0-.188-.658 1.601 1.601 0 0 0-.36-.52 1.623 1.623 0 0 0-.564-.344 2.28 2.28 0 0 0-.798-.126c-.372 0-.694.07-.968.207-.273.138-.5.34-.682.605a2.862 2.862 0 0 0-.407.977c-.09.387-.135.826-.135 1.32v.613c0 .502.054.946.163 1.332.109.386.264.711.467.974.202.264.448.464.738.602.29.138.62.207.987.207.271 0 .504-.018.698-.053.194-.036.358-.08.491-.135a1.452 1.452 0 0 0 .539-.364v-1.786h-1.879v-1.203h3.457v3.497zm7.07-2.889H64.22v2.807h4.377v1.266h-5.961v-9.123h5.917v1.278h-4.333v2.519h3.745v1.253zm8.51-3.772h-2.843v7.845H72.06v-7.845h-2.818v-1.278h7.233v1.278zm6.061 7.845H80.96v-9.123h1.578v9.123zm8.535-7.845H88.23v7.845h-1.571v-7.845H83.84v-1.278h7.232v1.278zm11.666 3.522c0 .693-.09 1.314-.272 1.864a4.062 4.062 0 0 1-.767 1.397c-.33.382-.727.676-1.19.88a3.771 3.771 0 0 1-1.54.308c-.56 0-1.071-.103-1.535-.307a3.418 3.418 0 0 1-1.199-.88 4.054 4.054 0 0 1-.783-1.398c-.185-.55-.278-1.171-.278-1.864v-.464c0-.694.093-1.316.278-1.868.186-.551.445-1.019.777-1.403.332-.385.73-.679 1.193-.884a3.755 3.755 0 0 1 1.534-.307c.564 0 1.078.103 1.544.307.465.205.864.5 1.196.884.331.384.588.852.77 1.403.181.552.272 1.174.272 1.868v.464zm-1.584-.477c0-.51-.05-.96-.147-1.35a2.881 2.881 0 0 0-.43-.98 1.86 1.86 0 0 0-.691-.6 2.063 2.063 0 0 0-.93-.203c-.338 0-.643.068-.914.204a1.892 1.892 0 0 0-.692.598c-.19.263-.336.59-.439.98-.102.392-.153.842-.153 1.351v.477c0 .51.051.96.153 1.353.103.393.25.722.442.987a1.9 1.9 0 0 0 .698.602c.274.135.58.203.918.203.7 0 1.24-.267 1.618-.802.378-.535.567-1.316.567-2.343v-.477zm10.395 4.8h-1.585l-4.064-6.473v6.473h-1.584v-9.123h1.584l4.077 6.498v-6.498h1.572v9.123z"/>
    </g>
</svg>
