<svg xmlns="http://www.w3.org/2000/svg" width="791" height="226" viewBox="0 0 791 226">
    <g fill="none" fill-rule="evenodd">
        <path fill="#FFFFFE" d="M669.484 184.795c-40.031 0-72.484-32.413-72.484-72.397C597 72.415 629.453 40 669.484 40c40.034 0 72.487 32.415 72.487 72.398 0 39.984-32.453 72.397-72.487 72.397"/>
        <path fill="#E8AD2C" d="M669.036 185.182c-40.03 0-72.483-32.413-72.483-72.396h-40.347c0 62.236 50.52 112.693 112.83 112.693 62.319 0 112.834-50.457 112.834-112.693h-40.346c0 39.983-32.453 72.396-72.488 72.396"/>
        <path fill="#FFFFFE" d="M483.487 40C443.453 40 411 72.412 411 112.398c0 39.984 32.453 72.397 72.487 72.397 40.031 0 72.484-32.413 72.484-72.397C555.97 72.412 523.518 40 483.487 40"/>
        <path fill="#1983B5" d="M483.722 40.375c-40.034 0-72.487 32.412-72.487 72.398h-40.347C370.888 50.533 421.408.08 483.722.08c62.311 0 112.83 50.455 112.83 112.694h-40.346c0-39.986-32.453-72.398-72.484-72.398"/>
        <path fill="#FFFFFE" d="M298.486 184.795c-40.032 0-72.486-32.413-72.486-72.397C226 72.415 258.454 40 298.486 40c40.034 0 72.487 32.415 72.487 72.398 0 39.984-32.453 72.397-72.487 72.397"/>
        <path fill="#054361" d="M298.401 185.182c-40.032 0-72.486-32.413-72.486-72.396H185.57c0 62.236 50.517 112.693 112.831 112.693 62.315 0 112.834-50.457 112.834-112.693h-40.347c0 39.983-32.452 72.396-72.487 72.396"/>
        <path fill="#FFFFFE" d="M113.486 40C73.454 40 41 72.412 41 112.398c0 39.984 32.454 72.397 72.486 72.397 40.034 0 72.487-32.413 72.487-72.397C185.973 72.412 153.52 40 113.486 40"/>
        <path fill="#2B8A83" d="M113.084 40.375c-40.033 0-72.486 32.412-72.486 72.398H.252C.252 50.533 50.768.08 113.084.08c62.316 0 112.831 50.455 112.831 112.694H185.57c0-39.986-32.453-72.398-72.486-72.398"/>
        <path fill="#F6C438" d="M761.63 141.765l-29.026-28.992h8.92c0-39.986-32.453-72.398-72.488-72.398-40.03 0-72.483 32.412-72.483 72.398h-40.347c0-62.24 50.52-112.694 112.83-112.694 62.319 0 112.834 50.455 112.834 112.694h8.788l-29.027 28.992"/>
        <path fill="#0C6E9D" d="M576.313 83.79l-29.027 28.996h8.92c0 39.983-32.453 72.396-72.484 72.396-40.034 0-72.487-32.413-72.487-72.396h-40.347c0 62.236 50.52 112.693 112.834 112.693 62.311 0 112.83-50.457 112.83-112.693h8.792L576.313 83.79"/>
        <path fill="#0F5D82" d="M361.965 112.773h8.923c0-39.986-32.452-72.398-72.487-72.398-40.032 0-72.486 32.412-72.486 72.398H185.57C185.57 50.533 236.087.08 298.401.08c62.315 0 112.834 50.455 112.834 112.694h8.791l-29.034 28.992-29.027-28.992z"/>
        <path fill="#47A59F" d="M205.676 83.79l-29.027 28.996h8.921c0 39.983-32.453 72.396-72.486 72.396s-72.486-32.413-72.486-72.396H.252c0 62.236 50.516 112.693 112.832 112.693 62.316 0 112.831-50.457 112.831-112.693h8.791l-29.03-28.996"/>
        <path fill="#2B8A83" fill-rule="nonzero" d="M113.5 112.5c7.102 0 12.857-5.708 12.857-12.75S120.602 87 113.5 87c-7.102 0-12.857 5.708-12.857 12.75s5.755 12.75 12.857 12.75zm9 3.188h-1.677a17.628 17.628 0 0 1-7.323 1.593c-2.612 0-5.083-.577-7.323-1.594H104.5c-7.453 0-13.5 5.997-13.5 13.388v4.144c0 2.64 2.16 4.781 4.821 4.781h35.358c2.661 0 4.821-2.142 4.821-4.781v-4.144c0-7.391-6.047-13.387-13.5-13.387z"/>
        <path fill="#0F5D82" fill-rule="nonzero" d="M320.541 110.622c.307-1.23.43-2.493.43-3.755 0-9.295-7.562-16.867-16.846-16.867-7.746 0-14.509 5.325-16.353 12.835a8.497 8.497 0 0 0-5.534-2.062c-4.642 0-8.423 3.786-8.423 8.434 0 .738.093 1.508.308 2.246-4.304 2.032-7.101 6.403-7.101 11.174 0 6.833 5.564 12.373 12.357 12.373h38.242c6.793 0 12.357-5.54 12.357-12.373 0-5.664-3.904-10.65-9.437-12.005zM286.45 127.12c0 .831-.707 1.54-1.537 1.54h-3.105c-.83 0-1.537-.709-1.537-1.54v-11.142c0-.83.707-1.539 1.537-1.539h3.105c.83 0 1.537.708 1.537 1.54v11.141zm8.976 0c0 .831-.707 1.54-1.537 1.54h-3.105c-.83 0-1.537-.709-1.537-1.54v-13.204c0-.831.707-1.539 1.537-1.539h3.105c.83 0 1.537.708 1.537 1.539v13.204zm8.976 0c0 .831-.707 1.54-1.537 1.54h-3.105c-.83 0-1.537-.709-1.537-1.54v-16.344c0-.83.707-1.539 1.537-1.539h3.105c.83 0 1.537.708 1.537 1.54v16.343zm8.73 0c0 .831-.706 1.54-1.537 1.54h-2.858c-.83 0-1.537-.709-1.537-1.54V104.56c0-.862.707-1.57 1.537-1.57h2.858c.83 0 1.538.708 1.538 1.57v22.561z"/>
        <path fill="#1983B5" fill-rule="nonzero" d="M505.05 95.337l-19.2-7.968a4.832 4.832 0 0 0-3.69 0l-19.2 7.968A4.776 4.776 0 0 0 460 99.75c0 19.772 11.45 33.439 22.15 37.881 1.18.489 2.51.489 3.69 0 8.57-3.556 22.16-15.837 22.16-37.881a4.782 4.782 0 0 0-2.95-4.413zm-21.04 36.119L484 93.504l17.59 7.302c-.33 15.08-8.21 26.008-17.58 30.65z"/>
        <path fill="#F6C438" fill-rule="nonzero" d="M699.02 92.256C695.145 90.622 691.27 90 687.395 90c-12.298-.001-24.594 6.262-36.892 6.262-3.084 0-6.166-.394-9.25-1.378a3.395 3.395 0 0 0-1.034-.163c-1.718 0-3.22 1.338-3.22 3.195v31.868c0 1.268.722 2.47 1.881 2.959 3.873 1.635 7.749 2.257 11.623 2.257 12.298 0 24.595-6.263 36.893-6.263 3.084 0 6.167.394 9.25 1.378.347.11.695.163 1.034.163 1.719 0 3.22-1.338 3.22-3.195V95.216c0-1.27-.723-2.47-1.882-2.96zm-57.227 7.81c2.008.507 4.105.761 6.262.898-.587 2.952-3.167 5.177-6.262 5.177v-6.074zm0 28.628v-4.8c3.431 0 6.208 2.74 6.36 6.168-2.249-.182-4.352-.634-6.36-1.368zm27.157-6.551c-4.412 0-7.987-4.318-7.987-9.643 0-5.326 3.576-9.643 7.987-9.643s7.988 4.317 7.988 9.643c0 5.327-3.578 9.643-7.988 9.643zm27.158 2.79c-1.75-.44-3.566-.688-5.424-.848a6.391 6.391 0 0 1 5.424-4.95v5.798zm0-23.716c-3.085-.393-5.478-2.983-5.573-6.183 1.951.218 3.803.626 5.573 1.272v4.91z"/>
    </g>
</svg>
