<svg xmlns="http://www.w3.org/2000/svg" width="253" height="204" viewBox="0 0 253 204">
    <g fill="none" fill-rule="nonzero">
        <ellipse cx="128.002" cy="194.048" fill="#3F3D56" rx="124.998" ry="9.764"/>
        <path fill="#A0616A" d="M234.18 175.909l1.172 8.59-8.2.781 1.171-10.543zM195.52 57.985s.78 10.543.78 10.934c0 .39-5.467 27.333-5.467 27.333s-7.81 14.838 0 14.448c7.81-.39 5.468-14.058 5.468-14.058l8.2-22.647-3.514-16.01h-5.467zM208.407 175.909l-1.172 8.59 8.201.781-1.171-10.543z"/>
        <path fill="#2F2E41" d="M199.425 95.471l-1.953 2.733s-1.171 11.715 0 15.62c1.172 3.904 3.515 21.866 3.515 23.037 0 1.172.39 1.953 0 2.343-.39.39-1.562.39-.781 1.172.78.78.78 3.123.78 3.123v1.953l5.078 28.895s-3.125 3.514-.781 3.514c2.343 0 10.934 0 10.543-3.905l-.78-.39s-1.172-25.771-.782-26.943c.39-1.171 0-3.514 0-3.514s-.78-1.172 0-1.562c.781-.39.781-3.514.781-3.514l3.515-23.82s3.124 16.01 5.077 17.572c1.952 1.562 1.562 5.467 1.562 5.467l1.562 34.362s-1.562 3.904 0 4.685c1.562.781 8.2 3.515 8.591-.39.39-3.905 2.343-37.876 2.343-39.438 0-1.562-.39-2.343 0-3.514.391-1.172-.39-1.172 0-1.172.391 0-.78-1.171-.78-1.952V110.7s.39-3.905.78-4.686c.391-.781-.39-1.562 0-2.733.391-1.172-.78-5.077-.78-5.077L219.34 93.52l-19.916 1.952zM213.093 182.937s1.952-1.952-.781-1.952a12.712 12.712 0 0 0-5.077 1.171l-1.952 7.029s-8.006 6.443.976 5.662c8.982-.781 7.615-.195 7.615-.195s2.734-.781 3.124-1.562c.39-.781-.781-12.105-.781-12.105s-1.172 3.124-3.124 1.952zM229.885 182.937s-1.952-1.952.781-1.952c1.755.036 3.484.435 5.077 1.171l1.952 7.029s8.006 6.443-.976 5.662c-8.982-.781-8.786-.195-8.786-.195s-2.734-.781-3.125-1.562c-.39-.781 1.953-12.105 1.953-12.105s1.172 3.124 3.124 1.952z"/>
        <ellipse cx="204.501" cy="16.986" fill="#A0616A" rx="10.153" ry="10.152"/>
        <path fill="#A0616A" d="M200.987 24.405s1.562 7.81 1.562 8.98c0 1.172 6.639 4.686 6.639 4.686l7.42-9.371s-4.687-6.638-4.687-8.2l-10.934 3.905z"/>
        <path fill="#D0CDE1" d="M206.845 34.557s-3.404-.906-4.436-2.405c0 0-10.795 10.605-10.795 12.557l8.592 15.229s0 5.466.78 5.857c.782.39 0 0 0 1.562s-2.342 11.714-1.561 13.276c.78 1.562 1.562.39.78 2.733-.78 2.343-2.733 14.838-2.733 14.838s7.03-2.343 17.183 1.562c10.153 3.905 22.26-1.562 22.26-1.562s-3.125-7.028-2.344-9.371c.781-2.343-1.952-6.638-1.952-6.638l-1.953-35.924s2.734-16.01.781-16.79l-3.905-1.562-12.506-1.537s-3.115 7.785-8.191 8.175z"/>
        <path fill="#D0CDE1" d="M195.52 41.976l-3.906 2.733s-1.952 5.857 0 8.59c1.953 2.734 2.734 6.639 2.734 6.639l7.81-.781-6.638-17.181z"/>
        <path fill="#2F2E41" d="M196.75 6.256l-1.762-.705s3.683-4.054 8.806-3.701l-1.44-1.586s3.522-1.41 6.724 2.291c1.683 1.946 3.631 4.233 4.845 6.81h1.886l-.787 1.732 2.755 1.734-2.828-.312a9.59 9.59 0 0 1-.267 4.489l.076 1.37s-3.278-5.071-3.278-5.776v1.762s-1.762-1.586-1.762-2.644l-.96 1.234-.48-1.939-5.925 1.94.961-1.587-3.683.529 1.441-1.94s-4.162 2.292-4.323 4.23c-.16 1.94-2.241 4.407-2.241 4.407l-.96-1.762s-1.442-7.932 3.201-10.576z"/>
        <path fill="#F2F2F2" d="M43.92 84.975h155.184v109H43.92z"/>
        <path fill="#3F3D56" d="M56.984 126.563h38.965v68.012H56.984z"/>
        <path fill="#F2F2F2" d="M64.191 130.643h10.496v9.783H64.191zM78.245 130.643h10.496v9.783H78.245zM64.191 143.984h10.496v10.139H64.191zM78.245 143.984h10.496v10.139H78.245z"/>
        <ellipse cx="90.993" cy="165.148" fill="#6C63FF" rx="2.478" ry="2.477"/>
        <path fill="#3F3D56" d="M109.012 120.107h77.029v64.634h-77.029zM215.321 105.495H27.703l12.51-26.15 2.8-5.856 3.662-7.657 2.8-5.855 3.245-6.783h147.82l1.916 6.783 1.655 5.855 2.165 7.657 1.655 5.855z"/>
        <path fill="#6C63FF" d="M111.715 146.906h2.703v16.665h-2.703z"/>
        <path fill="#F2F2F2" d="M111.715 149.384h2.703v2.027h-2.703zM111.715 159.067h2.703v2.027h-2.703z"/>
        <path fill="#6C63FF" d="M115.769 146.906h6.532v16.665h-6.532z"/>
        <path fill="#F2F2F2" d="M115.769 149.384h6.532v2.027h-6.532zM115.769 159.067h6.532v2.027h-6.532z"/>
        <path fill="#6C63FF" d="M123.877 146.906h2.703v16.665h-2.703z"/>
        <path fill="#F2F2F2" d="M123.877 149.384h2.703v2.027h-2.703zM123.877 159.067h2.703v2.027h-2.703z"/>
        <path fill="#6C63FF" d="M127.931 146.906h2.703v16.665h-2.703z"/>
        <path fill="#F2F2F2" d="M127.931 149.384h2.703v2.027h-2.703zM127.931 159.067h2.703v2.027h-2.703z"/>
        <path fill="#6C63FF" d="M130.71 147.918l2.529-.953 5.878 15.594-2.53.953z"/>
        <path fill="#F2F2F2" d="M131.583 150.237l2.53-.954.715 1.897-2.53.954zM135 159.298l2.529-.954.715 1.897-2.53.954z"/>
        <path fill="#6C63FF" d="M177.032 146.906h6.532v16.665h-6.532z"/>
        <path fill="#F2F2F2" d="M177.032 149.384h6.532v2.027h-6.532zM177.032 159.067h6.532v2.027h-6.532z"/>
        <path fill="#6C63FF" d="M172.752 146.906h2.703v16.665h-2.703z"/>
        <path fill="#F2F2F2" d="M172.752 149.384h2.703v2.027h-2.703zM172.752 159.067h2.703v2.027h-2.703z"/>
        <path fill="#6C63FF" d="M168.698 146.906h2.703v16.665h-2.703z"/>
        <path fill="#F2F2F2" d="M168.698 149.384h2.703v2.027h-2.703zM168.698 159.067h2.703v2.027h-2.703z"/>
        <path fill="#6C63FF" d="M160.215 162.56l5.88-15.595 2.527.953-5.878 15.596z"/>
        <path fill="#F2F2F2" d="M164.505 151.18l.715-1.896 2.528.953-.715 1.896zM161.088 160.241l.715-1.896 2.529.953-.715 1.896zM109.012 163.572h77.029v1.576h-77.029z"/>
        <path fill="#6C63FF" d="M142.571 146.906h14.19v16.665h-14.19z"/>
        <path fill="#F2F2F2" d="M146.062 150.51h7.207v3.153h-7.207zM146.851 120.107h1.351v14.413h-1.351z"/>
        <ellipse cx="147.526" cy="134.52" fill="#F2F2F2" rx="2.252" ry="2.252"/>
        <path fill="#6C63FF" d="M204.111 65.832H46.675l2.8-5.855h152.98zM207.931 79.344H40.213l2.8-5.855h163.263z"/>
        <path fill="#A0616A" d="M224.418 45.49s-2.262 5.815-1.79 11.568a6.096 6.096 0 0 0 1.009 2.88l-27.705 13.151s-12.518 1.296-9.394 6.763c3.124 5.467 14.449-2.733 14.449-2.733s29.68-4.296 32.022-8.59c2.343-4.296 3.905-22.258 3.905-22.258l-12.496-.78z"/>
        <path fill="#D0CDE1" d="M225.59 29.48h5.857s4.296.782 5.467 8.591c1.172 7.81 2.344 9.762 1.172 9.762s-15.23-.39-15.23-.78c0-.391 2.733-17.572 2.733-17.572z"/>
        <ellipse cx="30.048" cy="116.084" fill="#6C63FF" rx="30.048" ry="30.044"/>
        <ellipse cx="30.048" cy="116.084" fill="#000" opacity=".1" rx="25.841" ry="25.838"/>
        <path fill="#F2F2F2" d="M28.81 131.33v-3.76c-1.902-.037-3.869-.708-5.016-1.639l.787-2.494a8.018 8.018 0 0 0 4.72 1.6c2.327 0 3.9-1.526 3.9-3.648 0-2.048-1.278-3.314-3.703-4.431-3.344-1.49-5.409-3.202-5.409-6.442 0-3.09 1.934-5.436 4.95-5.994v-3.76h2.032v3.61a7.976 7.976 0 0 1 4.262 1.304l-.82 2.457a7.244 7.244 0 0 0-4.13-1.266c-2.524 0-3.475 1.713-3.475 3.203 0 1.936 1.213 2.904 4.065 4.244 3.376 1.564 5.08 3.5 5.08 6.814 0 2.942-1.802 5.697-5.179 6.33v3.872H28.81z"/>
    </g>
</svg>
