<svg xmlns="http://www.w3.org/2000/svg" width="333" height="195" viewBox="0 0 333 195">
    <g fill="none" fill-rule="nonzero">
        <path fill="#2F2E41" d="M261.414 5C253.454 5 247 12.104 247 20.867V32h3.452l1.999-4.125-.5 4.125h22.188l1.817-3.75-.454 3.75H278v-8.742C278 13.175 270.574 5 261.414 5z"/>
        <ellipse cx="176.5" cy="184.5" fill="#3F3D56" rx="156.5" ry="10.5"/>
        <path fill="#3F3D56" d="M71.302 180c-.065-.112-1.598-2.804-2.13-8.396-.488-5.13-.174-13.776 4.09-25.837C81.34 122.92 71.4 104.483 71.3 104.3l.49-.299c.026.047 2.59 4.747 4.106 12.232a55.966 55.966 0 0 1-2.102 29.743c-8.064 22.81-2.068 33.608-2.007 33.714l-.484.311z"/>
        <circle cx="68" cy="100" r="4" fill="#6C63FF"/>
        <circle cx="80" cy="114" r="4" fill="#3F3D56"/>
        <circle cx="72" cy="124" r="4" fill="#6C63FF"/>
        <circle cx="82" cy="132" r="4" fill="#6C63FF"/>
        <circle cx="69" cy="144" r="4" fill="#3F3D56"/>
        <path fill="#3F3D56" d="M73.593 181s-3.704-9.714 7.407-17l-7.407 17zM68 181s-1.716-10.086-15-10l15 10z"/>
        <path fill="#FFB8B8" d="M254.508 25.892s4.524 10.405-1.508 12.486L259.032 58l10.254-.595 2.714-6.54-.603-9.81-.905-6.541S264.16 36 264.762 25l-10.254.892zM251.586 38.036s-9.827-.904-8.933 6.328c.893 7.233 1.786 8.74 1.786 8.74l.894 10.848-5.36 3.315h-5.063s-15.485 3.616-7.742 7.533c7.742 3.918 10.422-3.013 10.422-3.013s14.294 0 15.187-2.41c.894-2.412-1.19-31.34-1.19-31.34zM271 34.757s9.247-3.308 9.844 3.91c.596 7.217.596 7.818.596 7.818l1.79 10.225s3.58 9.022 3.58 11.73c0 2.706 2.684 11.126 2.684 11.126s3.58 11.73-.298 11.428c-3.878-.3-4.475-12.63-4.475-12.63l-8.053-16.24-2.387-9.925L271 34.757z"/>
        <path fill="#6C63FF" d="M254.19 36.31h-2.398l-.3 12.637s-3.895 5.416.9 10.23L253.59 67l21.875-.903 1.498-8.124s2.997-6.619-1.198-12.637L271.869 33h-2.097s4.858 17.986-5.394 18.354c-8.39.3-10.188-15.044-10.188-15.044z"/>
        <path fill="#2F2E41" d="M253.951 65.598l-1.793 5.977S214.79 176.77 226.149 179.46c11.36 2.69 27.204 6.276 28.699 3.586 1.495-2.69 9.267-81.288 9.267-81.288s-1.196 82.185 2.69 82.185c3.887 0 29.596.598 31.09-3.287 1.496-3.886-13.452-107.887-22.121-110.278L273.382 65l-19.43.598z"/>
        <path fill="#3F3D56" d="M276.1 63l-23.62.937s-1.079 8.43 0 8.43c.298 0 24.816 2.185 24.517-1.562C276.698 67.06 276.1 63 276.1 63zM154 120.001a34.002 34.002 0 0 1-19.233 30.635c-.003 0-.003 0-.006.003a33.1 33.1 0 0 1-3.17 1.333 9.761 9.761 0 0 1-.524.184c-.36.129-.728.246-1.098.358-.761.234-1.533.442-2.316.622h-.003l-.021.006-.049.01a28.652 28.652 0 0 1-2.082.403 33.724 33.724 0 0 1-5.493.445 33.788 33.788 0 0 1-3.09-.141 34.122 34.122 0 0 1-7.779-1.634 28.805 28.805 0 0 1-1.113-.4c-16.098-6.062-25.132-23.194-21.043-39.905 4.09-16.71 20.014-27.732 37.092-25.673C141.149 88.306 153.999 102.797 154 120z"/>
        <path fill="#3F3D56" d="M116 120.493s7.74-3.486 11.376.196c3.636 3.682-9.734 2.47-11.376-.196z"/>
        <path fill="#2F2E41" d="M129.471 103.816c-2.653-4.585-7.901-4.799-7.901-4.799s-5.115-.669-8.396 6.315c-3.058 6.509-7.278 12.794-.68 14.317l1.193-3.795.738 4.078c.94.07 1.882.086 2.823.05 7.068-.234 13.798.068 13.581-2.526-.288-3.449 1.195-9.228-1.358-13.64zM130.492 152.185c.172-.057.342-.116.508-.181l-.038-.053-.47-.027-3.04-.166h-.004l-.51-.027-2.42-.133-5.267-.29-2.822-.154-.143-.009h-.035l-1.987-.11-.648-.035-.616 2.292c1.243.265 2.5.455 3.765.569a32.305 32.305 0 0 0 2.997.14 32.253 32.253 0 0 0 5.328-.44 27.434 27.434 0 0 0 2.02-.396l.047-.009.02-.006h.003a31.99 31.99 0 0 0 2.247-.613l1.065-.352z"/>
        <path fill="#A0616A" d="M116.688 113.844s1.2 8.054-1.199 9.03c-2.398.977 4.796 5.126 4.796 5.126h4.077l2.638-5.614s-2.398-4.393-.96-8.542c1.44-4.15-9.352 0-9.352 0z"/>
        <path fill="#3F3D56" d="M131 151.63v-28.25s-.309-2.902-2.76-2.147c-.25.08-.493.18-.726.3a8.408 8.408 0 0 0-1.157.749c-.14.105-.282.22-.43.343l-.037.03c-4.621 3.863-6.808 1.209-7.296.724-.179-.174-.645-.67-1.169-1.23v-.002a53.85 53.85 0 0 1-.687-.74c-.694-.743-1.306-1.407-1.306-1.407L113 121.93l.594 14.636.139 3.452v.003l.045 1.073v.006l.379 9.363.058 1.413a26 26 0 0 0 3.286.806c2.108.379 4.761.574 6.445-.325.34-.18.697-.329 1.066-.442a7.456 7.456 0 0 1 2.26-.31c.163.004.324.01.484.019h.003c.722.05 1.438.172 2.135.363l1.106-.357z"/>
        <path fill="#D0CDE1" d="M119.032 151.39a14.583 14.583 0 0 1-1.757 1.956c-.198.188-.395.37-.596.548l-.122.106a31.802 31.802 0 0 1-7.512-1.644c-.36-.127-.72-.26-1.075-.403.224-.592.4-1.202.526-1.825 1.606-7.847-3.065-19.758-3.472-21.668-.148-.687.398-1.641 1.273-2.655 1.908-2.207 5.38-4.702 6.66-5.368a4.63 4.63 0 0 1 3.095-.297h.003c.324.07.642.169.95.297v.003c.003.045.035.39.09.981.029.324.064.717.107 1.178v.003c.079.86.177 1.931.294 3.154v.003c.7 7.536 1.966 20.651 2.46 22.882.183.827-.223 1.784-.924 2.75zM130.467 151.603c.181-.057.36-.117.534-.183a34.205 34.205 0 0 0 3.237-1.331c-1.578-4.512 3.086-18.857 4.422-23.297v-.006c.157-.52.268-.904.317-1.117.494-2.172-7.03-4.221-7.275-4.705-.19-.366-3.246-.736-4.687-.889-.445-.048-.737-.075-.737-.075-.38.288-.672 1.118-.9 2.322-.021.096-.04.198-.055.3-.163.932-.288 2.058-.39 3.323-.559 6.898-.368 17.796-.878 22.284a8.943 8.943 0 0 0 .126 2.78c.056.296.128.59.215.88.107.377.236.748.387 1.111a29.835 29.835 0 0 0 2.125-.403l.049-.009.021-.006h.004c.798-.18 1.586-.387 2.364-.621l1.121-.358z"/>
        <ellipse cx="128.5" cy="110" fill="#A0616A" rx="1" ry="1"/>
        <ellipse cx="114.5" cy="110" fill="#A0616A" rx="1" ry="1"/>
        <path fill="#D0CDE1" d="M130.523 151.036c.183-.057.363-.116.54-.181a35.046 35.046 0 0 0 3.269-1.31c0 .003 0 .006.003.008 0-.004 0-.008.003-.012 1.86-9.372 3.833-19.399 4.46-22.94v-.006c.108-.616.176-1.033.195-1.22.248-2.375-5.98-2.375-5.98-2.375l-.992 4.784-1.498 7.228-.515 2.482-2.72 13.115-.086.42L127 152h.003a35.727 35.727 0 0 0 2.388-.612l1.132-.352zM116.844 152.985a34.313 34.313 0 0 1-7.74-1.606c-.189-.718-.378-1.446-.566-2.176C106.2 140.138 104 130.548 104 128.75c0-1.488 1.05-2.562 2.272-3.307A12.991 12.991 0 0 1 110.01 124s.766 3.15 1.867 7.692c.59 2.425 1.273 5.247 1.982 8.198v.003a4696.611 4696.611 0 0 1 2.877 11.99v.01a5296.776 5296.776 0 0 1 .075.305l.158.684c.012.038.021.077.03.118a1.38 1.38 0 0 1-.156-.015z"/>
        <path fill="#000" d="M111 131l5 21s-2.333-18.375-5-21zM125 153.342l2-.342v.009c-.66.129-1.327.24-2 .333zM132 128l-1.383 7.44-.476 2.554-2.508 13.499h-.003l-.077.432h-.003l-.183.999h-.003l-.02.006-.046.01-.298.06c.026-.341.057-.706.092-1.093.011-.143.023-.29.037-.442.538-6.22 1.687-16.967 3.488-21.467.424-1.06.885-1.773 1.383-1.998z" opacity=".2"/>
        <circle cx="122" cy="110" r="7" fill="#A0616A"/>
        <path fill="#2F2E41" d="M127.754 103.839L122.596 101l-7.122 1.161L114 109l3.669-.148 1.024-2.513v2.471l1.693-.068.982-4 .615 4.258 6.017-.129z"/>
        <path fill="#3F3D56" d="M68 77.001a33.997 33.997 0 0 1-14.17 27.617 33.476 33.476 0 0 1-3.75 2.347 34.08 34.08 0 0 1-23.277 3.268 33.269 33.269 0 0 1-4.94-1.469C5.817 102.63-3.132 85.486 1.008 68.81c4.14-16.675 20.068-27.641 37.121-25.556C55.181 45.339 67.998 59.819 68 77z"/>
        <circle cx="32" cy="67" r="8" fill="#FFB8B8"/>
        <path fill="#FFB8B8" d="M29 73.381s.957 4.524.957 5S34.5 81 34.5 81l4.065-.714L40 76s-2.391-3.571-2.391-5L29 73.381z"/>
        <path fill="#D0CDE1" d="M33.723 111a33.7 33.7 0 0 1-7.2-.774 308.944 308.944 0 0 1-.196-5.074l-2.382-6.977L19 83.7l10.181-7.846s2.52 4.145 6.184 2.912A5.095 5.095 0 0 0 38.951 74L51 78.275l-2.081 17.049-.118.953.993 10.651A33.569 33.569 0 0 1 33.724 111z"/>
        <path fill="#2F2E41" d="M24.86 60.186s2.512-5.208 7.325-4.006c4.813 1.202 7.534 3.004 7.743 4.807.21 1.803-.105 4.506-.105 4.506s-.523-3.705-3.871-2.904c-3.349.801-8.58.2-8.58.2L26.534 70s-.941-1.302-1.988-.5c-1.046.8-3.034-7.712.314-9.314z"/>
        <path fill="#D0CDE1" d="M15 105.245l1.594-13.367C16.347 86.707 19.566 84 19.566 84h3.712L26 93.108l-1.423 5.341-1.793 6.72-.496.74s.496.736.246.984c-.246.246-.493 1.231-.493 1.231s.052.352.143.876A34.197 34.197 0 0 1 15 105.245zM60 99.437A33.75 33.75 0 0 1 54.08 105a11.577 11.577 0 0 1-.823-1.872l-3.735-7.356L47 90.81 47.48 78l4.093.74s2.407 2.463 3.37 5.42l1.927 8.867 3.127 6.407.003.003z"/>
        <path fill="#3F3D56" d="M234 58.002a33.974 33.974 0 0 1-18.168 30.093c-.933.493-1.893.944-2.874 1.345v.003c-.312.129-.625.252-.941.37a19.73 19.73 0 0 1-.448.168A34.075 34.075 0 0 1 200.004 92c-2.59.002-5.17-.29-7.693-.873a33.612 33.612 0 0 1-3.866-1.143h-.003a33.855 33.855 0 0 1-5.818-2.759 33.876 33.876 0 0 1-.783-.478c-13.803-8.723-19.457-26.027-13.466-41.218 5.99-15.19 21.933-23.977 37.974-20.928C222.39 27.65 234 41.672 234 58.001z"/>
        <path fill="#A0616A" d="M196.098 53s.194 5.288-.967 6.508c-1.162 1.22 5.805 5.492 5.805 5.492L205 58.288s-1.548-2.847-1.161-5.288h-7.74z"/>
        <circle cx="199" cy="48" r="7" fill="#A0616A"/>
        <path fill="#D0CDE1" d="M212.064 87.201c.045.55.09 1.1.133 1.65-.149.056-.3.112-.452.165A35.095 35.095 0 0 1 200.097 91a35.196 35.196 0 0 1-7.749-.857 34.5 34.5 0 0 1-3.893-1.124l-.003.027a7.885 7.885 0 0 1 .345-1.803v-.003c.17-.61.4-1.313.664-2.09.284-.831.303-2.647.242-4.352l-.015-.39a76.188 76.188 0 0 0-.085-1.553c-.07-1.06-.142-1.815-.142-1.815L185 65.372l10.773-7.675c.636 2.013 2 1.942 2 1.942 5.782.388 6.845-3.509 6.879-3.636V56L215 62.604l-4.255 10.084s.173 1.71.419 4.317c.036.384.072.79.115 1.212.236 2.56.524 5.75.785 8.984z"/>
        <path fill="#A0616A" d="M189 78.977l-.201 1.486-.05.375-.853 6.348-.006.026v.003l-.325 1.759-.003.026a.041.041 0 0 1 0-.026A32.097 32.097 0 0 1 182 86.29c.239-.757.521-1.5.846-2.223l.586-4.646.181-1.422 5.042.916.345.061z"/>
        <path fill="#D0CDE1" d="M187.47 65l-3.002.306S182.5 79.71 183.12 79.71c.622 0 7.664 1.634 7.87 1.225.208-.408-3.52-15.934-3.52-15.934z"/>
        <path fill="#2F2E41" d="M193.514 41.293l-1.297-.484s2.712-2.782 6.485-2.54l-1.061-1.088s2.594-.968 4.952 1.572c1.24 1.335 2.674 2.904 3.569 4.672h1.389l-.58 1.19L209 45.802l-2.083-.213a6.147 6.147 0 0 1-.197 3.08L206.25 50s-1.887-3.87-1.887-4.354v1.21s-1.297-1.089-1.297-1.814l-.708.846-.353-1.33-4.363 1.33.707-1.088-2.712.363 1.062-1.33s-3.066 1.571-3.184 2.902c-.118 1.33-1.65 3.023-1.65 3.023l-.708-1.21s-1.062-5.441 2.358-7.255z"/>
        <path fill="#A0616A" d="M216.955 86.177c-.565.354-1.142.687-1.73 1.006-.876.475-1.778.91-2.7 1.295v.003c-.294.125-.588.244-.885.357-.139.055-.28.11-.421.162l.296-1.78-1.345-8.765-.17-1.099.676-.13L216.998 76v7.949s.017.86-.043 2.228z"/>
        <path fill="#D0CDE1" d="M210.566 62l3.817.488s4.6 13.951 3.425 14.536C216.634 77.61 209 78 209 78l1.566-16z"/>
        <circle cx="56" cy="51" r="10" fill="#6C63FF"/>
        <circle cx="143" cy="95" r="10" fill="#6C63FF"/>
        <circle cx="224" cy="34" r="10" fill="#6C63FF"/>
        <circle cx="259.5" cy="20.5" r="8.5" fill="#FFB8B8"/>
        <path fill="#2F2E41" d="M265.993 10.06A7.464 7.464 0 0 0 260.078 7h-.28C254.385 7 250 11.964 250 18.088h1.813l.293-2.26.43 2.26h10.752l.901-1.912-.225 1.912h2.115c.988 4.97-.43 9.941-4.255 14.912h3.604l1.802-3.824-.45 3.824h6.869L275 24.206c0-6.586-3.774-12.17-9.007-14.146z"/>
        <circle cx="267.5" cy="5.5" r="5.5" fill="#2F2E41"/>
    </g>
</svg>
