<svg xmlns="http://www.w3.org/2000/svg" width="224" height="186" viewBox="0 0 224 186">
    <g fill="none" fill-rule="nonzero">
        <path fill="#3F3D56" d="M141.792 157.8c-.832 0-1.672-.013-2.496-.039l.019-.6c1.183.038 2.392.048 3.581.031l.008.6c-.37.005-.74.008-1.112.008zm4.719-.14l-.035-.598a79.234 79.234 0 0 0 3.57-.292l.062.596a79.142 79.142 0 0 1-3.597.295zm-10.819-.093a79.32 79.32 0 0 1-3.591-.357l.073-.596a78.95 78.95 0 0 0 3.564.355l-.046.598zm17.995-.66l-.09-.592a79.042 79.042 0 0 0 3.528-.618l.117.588a79.408 79.408 0 0 1-3.555.623zm-25.157-.219c-1.18-.2-2.373-.43-3.543-.685l.127-.586c1.161.252 2.344.48 3.516.68l-.1.591zm32.235-1.188l-.144-.583a78.43 78.43 0 0 0 3.456-.94l.17.575c-1.145.34-2.317.66-3.482.948zm-39.286-.344a78.14 78.14 0 0 1-3.466-1.01l.18-.571c1.133.358 2.29.695 3.44 1l-.154.58zm46.204-1.71l-.197-.567c1.122-.39 2.251-.813 3.355-1.255l.223.557c-1.113.445-2.25.87-3.381 1.264zm-53.094-.47a78.15 78.15 0 0 1-3.365-1.328l.232-.553c1.1.463 2.223.906 3.34 1.317l-.207.563zm59.786-2.211l-.248-.546a77.903 77.903 0 0 0 3.22-1.555l.273.534a78.744 78.744 0 0 1-3.245 1.567zm-66.45-.598a78.752 78.752 0 0 1-3.227-1.632l.282-.529a78.503 78.503 0 0 0 3.202 1.62l-.258.54zm72.864-2.684l-.297-.52a78.956 78.956 0 0 0 3.066-1.845l.32.507a78.646 78.646 0 0 1-3.09 1.858zm-79.239-.725a79.227 79.227 0 0 1-3.062-1.92l.33-.5a78.372 78.372 0 0 0 3.039 1.904l-.307.516zm85.33-3.132l-.343-.491a79.11 79.11 0 0 0 2.887-2.119l.365.476c-.95.73-1.928 1.449-2.909 2.134zm-91.362-.845a79.61 79.61 0 0 1-2.873-2.19l.374-.469c.932.744 1.89 1.476 2.85 2.173l-.351.486zm97.08-3.553l-.386-.46a79.326 79.326 0 0 0 2.683-2.372l.407.44a79.64 79.64 0 0 1-2.704 2.392zm-102.722-.956a79.29 79.29 0 0 1-2.661-2.442l.415-.433c.858.824 1.746 1.64 2.64 2.424l-.394.45zm108.019-3.948l-.427-.422a79.388 79.388 0 0 0 2.458-2.608l.446.401c-.801.89-1.635 1.774-2.477 2.629zM84.669 133.27a79.856 79.856 0 0 1-2.427-2.673l.453-.393c.777.897 1.588 1.789 2.408 2.652l-.434.414zm118.057-4.314l-.463-.38c.756-.921 1.5-1.87 2.212-2.824l.48.36a78.9 78.9 0 0 1-2.229 2.844zM79.94 127.817a79.211 79.211 0 0 1-2.173-2.881l.486-.35c.695.965 1.42 1.927 2.157 2.859l-.47.372zm127.11-4.65l-.495-.336c.669-.985 1.323-2 1.946-3.014l.511.314a79.634 79.634 0 0 1-1.961 3.037zM75.729 121.96a79.653 79.653 0 0 1-1.9-3.066l.517-.305a78.98 78.98 0 0 0 1.885 3.043l-.502.328zm135.104-4.953l-.525-.29a78.65 78.65 0 0 0 1.663-3.182l.537.266a79.105 79.105 0 0 1-1.675 3.206zM72.07 115.744a78.979 78.979 0 0 1-1.61-3.225l.541-.256a78.365 78.365 0 0 0 1.6 3.2l-.53.281zm141.963-5.224l-.549-.241c.478-1.092.936-2.21 1.363-3.324l.56.215a78.954 78.954 0 0 1-1.374 3.35zm-145.035-1.295c-.46-1.104-.9-2.233-1.308-3.357l.564-.205a78.12 78.12 0 0 0 1.297 3.331l-.553.23zm147.627-5.465l-.569-.189a77.699 77.699 0 0 0 1.05-3.427l.576.162a78.773 78.773 0 0 1-1.057 3.454zm-150.09-1.315a78.913 78.913 0 0 1-.996-3.472l.58-.152c.302 1.152.635 2.31.989 3.446l-.573.178zm152.044-5.638l-.584-.136a78.16 78.16 0 0 0 .73-3.51l.589.109a78.57 78.57 0 0 1-.735 3.537zM64.705 95.459a79.022 79.022 0 0 1-.673-3.55l.592-.098c.194 1.175.419 2.36.667 3.522l-.586.126zm155.18-5.755l-.594-.082c.161-1.175.298-2.373.405-3.562l.597.054a79.04 79.04 0 0 1-.408 3.59zm-156.362-1.37a79.882 79.882 0 0 1-.345-3.596l.598-.044a78.9 78.9 0 0 0 .343 3.569l-.596.07zm157.014-5.823l-.599-.027a80.43 80.43 0 0 0 .08-3.584h.6c0 1.198-.027 2.413-.08 3.61zm-157.54-1.38a81.095 81.095 0 0 1-.02-3.614l.6.011a79.214 79.214 0 0 0 .019 3.586l-.6.016zm157.017-3.068a80.015 80.015 0 0 0-.118-3.584l.599-.033c.066 1.197.106 2.412.119 3.61l-.6.007zM63.72 73.946l-.598-.037c.075-1.2.178-2.41.307-3.6l.595.065a79.286 79.286 0 0 0-.304 3.572zm155.897-3.04a78.802 78.802 0 0 0-.443-3.558l.593-.087c.175 1.186.326 2.392.447 3.584l-.597.06zM64.49 66.82l-.592-.092c.183-1.186.397-2.383.634-3.556l.587.12a78.272 78.272 0 0 0-.629 3.528zm154.078-3.005a78.89 78.89 0 0 0-.766-3.501l.582-.142c.283 1.162.542 2.35.773 3.528l-.589.115zM65.91 59.795l-.581-.146c.29-1.162.613-2.334.958-3.483l.574.173a78.43 78.43 0 0 0-.95 3.456zm150.964-2.944a78.124 78.124 0 0 0-1.085-3.416l.566-.195c.39 1.133.758 2.291 1.095 3.442l-.576.169zm-148.9-3.93l-.566-.199a78.673 78.673 0 0 1 1.278-3.387l.556.225a77.937 77.937 0 0 0-1.268 3.361zm146.573-2.848a78.756 78.756 0 0 0-1.393-3.294l.547-.247c.49 1.09.962 2.207 1.403 3.32l-.557.22zM70.664 46.262l-.545-.25a78.974 78.974 0 0 1 1.584-3.253l.533.275a78.254 78.254 0 0 0-1.572 3.228zm140.949-2.71a78.531 78.531 0 0 0-1.69-3.155l.522-.296a78.9 78.9 0 0 1 1.702 3.179l-.534.271zm-137.659-3.67l-.52-.3a79.28 79.28 0 0 1 1.875-3.091l.505.323a78.66 78.66 0 0 0-1.86 3.068zm134.137-2.56a79.172 79.172 0 0 0-1.971-2.989l.492-.342c.68.982 1.349 1.995 1.987 3.012l-.508.319zM77.812 33.835l-.49-.346a79.49 79.49 0 0 1 2.148-2.906l.474.367c-.729.94-1.446 1.911-2.132 2.885zm126.202-2.398a78.945 78.945 0 0 0-2.237-2.798l.46-.386a79.997 79.997 0 0 1 2.253 2.82l-.476.364zm-121.81-3.27l-.456-.389a79.735 79.735 0 0 1 2.402-2.697l.438.41a79.475 79.475 0 0 0-2.384 2.676zm117.212-2.222a79.142 79.142 0 0 0-2.483-2.584l.423-.426c.848.844 1.69 1.72 2.501 2.604l-.441.406zM87.09 22.925l-.419-.428c.857-.84 1.744-1.67 2.636-2.467l.4.448a78.832 78.832 0 0 0-2.617 2.448zm107.245-2.033a79.172 79.172 0 0 0-2.708-2.349l.382-.462c.922.763 1.84 1.559 2.729 2.366l-.403.445zm-101.904-2.74l-.379-.465a79.542 79.542 0 0 1 2.848-2.215l.357.482a78.99 78.99 0 0 0-2.826 2.198zm96.384-1.832a79.3 79.3 0 0 0-2.912-2.093l.339-.495a79.557 79.557 0 0 1 2.934 2.109l-.361.48zm-90.635-2.433l-.335-.498a79.244 79.244 0 0 1 3.037-1.945l.311.513a78.934 78.934 0 0 0-3.013 1.93zm84.718-1.617a78.592 78.592 0 0 0-3.091-1.819l.291-.524a79.41 79.41 0 0 1 3.116 1.832l-.316.51zm-78.608-2.103l-.287-.527a79.183 79.183 0 0 1 3.199-1.658l.263.539a78.377 78.377 0 0 0-3.175 1.646zm72.344-1.39a78.294 78.294 0 0 0-3.248-1.528l.243-.549a78.79 78.79 0 0 1 3.272 1.54l-.267.536zm-65.923-1.754l-.238-.55a78.683 78.683 0 0 1 3.335-1.357l.213.561a77.952 77.952 0 0 0-3.31 1.346zm59.36-1.15a77.96 77.96 0 0 0-3.376-1.222l.19-.569c1.14.383 2.284.797 3.403 1.232l-.217.559zm-52.674-1.391l-.186-.57a78.336 78.336 0 0 1 3.454-1.046l.16.578a77.734 77.734 0 0 0-3.428 1.038zm45.877-.892a77.864 77.864 0 0 0-3.466-.903l.137-.584c1.166.275 2.34.581 3.493.91l-.164.577zm-38.976-1.025l-.134-.585a78.478 78.478 0 0 1 3.536-.723l.106.59a78.06 78.06 0 0 0-3.508.718zm32.006-.62a78.07 78.07 0 0 0-3.534-.58l.083-.594c1.187.167 2.385.363 3.562.584l-.111.59zm-24.96-.653l-.079-.595a79.067 79.067 0 0 1 3.587-.395l.052.597a78.756 78.756 0 0 0-3.56.393zm17.869-.344a78.794 78.794 0 0 0-3.573-.255l.03-.6a79.57 79.57 0 0 1 3.599.258l-.056.597zM138.479.669l-.025-.6A80.888 80.888 0 0 1 141.792 0h.271l-.002.6h-.27c-1.104 0-2.218.024-3.312.07z"/>
        <path fill="#2F2E41" d="M218.574 144.381a3.598 3.598 0 0 1-3.596-3.6c0-1.988 1.61-3.6 3.596-3.6a3.598 3.598 0 0 1 3.597 3.6 3.602 3.602 0 0 1-3.597 3.6zm0-6.6a2.999 2.999 0 0 0-2.997 3c0 1.657 1.342 3 2.997 3a2.999 2.999 0 0 0 2.997-3 3.002 3.002 0 0 0-2.997-3z"/>
        <path fill="#3F3D56" d="M122.904 52.023v19.704a.689.689 0 0 1-.686.687h-.488v102.645c0 5.915-4.791 10.71-10.7 10.71H46.952a10.693 10.693 0 0 1-7.564-3.138 10.713 10.713 0 0 1-3.133-7.572V76.014h-.353a.485.485 0 0 1-.486-.483V64.317a.486.486 0 0 1 .486-.486h.353v-4.224H35.9a.509.509 0 0 1-.507-.51V48.036c0-.28.227-.506.507-.507h.356v-5.766h-.362a.449.449 0 0 1-.45-.45v-6.036c0-.25.2-.452.45-.453h.362V22.602c0-5.913 4.79-10.707 10.697-10.707h64.078c5.908 0 10.698 4.793 10.7 10.707v28.734h.488a.689.689 0 0 1 .686.687z"/>
        <rect width="11.936" height="2.426" x="70.904" y="17.387" fill="#E6E8EC" rx=".763"/>
        <ellipse cx="86.019" cy="18.6" fill="#E6E8EC" rx="1.375" ry="1.376"/>
        <path fill="#6C63FF" d="M116.606 24.72v151.227a6.792 6.792 0 0 1-6.789 6.792H48.48a6.774 6.774 0 0 1-4.802-1.986 6.786 6.786 0 0 1-1.986-4.806V24.72c0-1.802.715-3.53 1.988-4.805a6.785 6.785 0 0 1 4.8-1.99h9.18v1.179a5.592 5.592 0 0 0 5.59 5.595h31.196a5.592 5.592 0 0 0 5.59-5.595v-1.18h9.782c1.8 0 3.528.716 4.801 1.99a6.796 6.796 0 0 1 1.988 4.806z"/>
        <path fill="#000" d="M44.685 67.5h69.535v33.9H44.685z" opacity=".2"/>
        <path fill="#F2F2F2" d="M153.783 28.8h69.535v33.9h-69.535z"/>
        <path fill="#3F3D56" d="M44.685 118.884h69.535v33.9H44.685z"/>
        <ellipse cx="107.027" cy="36.384" fill="#FFF" rx="5.994" ry="6"/>
        <path fill="#3F3D56" d="M109.724 36.19h-2.505v-2.506h-.385v2.507h-2.505v.386h2.505v2.507h.385v-2.507h2.505zM145.99 24.3h69.535v33.9H145.99z"/>
        <path fill="#FFF" d="M177.031 47.061c1.82 6.735 8.055 10.906 8.055 10.906s3.284-6.748 1.464-13.483c-1.82-6.735-8.055-10.906-8.055-10.906s-3.284 6.748-1.464 13.483z"/>
        <path fill="#6C63FF" d="M179.706 45.614c4.995 4.866 5.605 12.348 5.605 12.348s-7.488-.41-12.483-5.276c-4.995-4.867-5.605-12.348-5.605-12.348s7.488.409 12.483 5.276z"/>
        <path fill="#FFF" d="M72.681 142.161c1.82 6.735 8.055 10.906 8.055 10.906s3.284-6.748 1.464-13.483c-1.82-6.735-8.055-10.906-8.055-10.906s-3.284 6.748-1.464 13.483z"/>
        <path fill="#6C63FF" d="M75.356 140.714c4.995 4.866 5.605 12.348 5.605 12.348s-7.488-.41-12.483-5.276c-4.995-4.867-5.605-12.348-5.605-12.348s7.488.409 12.483 5.276z"/>
        <path fill="#FFF" d="M89.24 142.161c-1.82 6.735-8.054 10.906-8.054 10.906s-3.284-6.748-1.464-13.483c1.82-6.735 8.055-10.906 8.055-10.906s3.284 6.748 1.464 13.483z"/>
        <path fill="#6C63FF" d="M86.566 140.714c-4.995 4.866-5.605 12.348-5.605 12.348s7.488-.41 12.483-5.276c4.995-4.867 5.605-12.348 5.605-12.348s-7.488.409-12.483 5.276z"/>
        <path fill="#3F3D56" d="M161.576 100.968h-5.917v-5.922h5.917v5.922zm-5.462-.455h5.007v-5.011h-5.007v5.01z"/>
        <path fill="#2F2E41" d="M6.214 137.592l-4.036-4.33 4.327-4.04 4.036 4.33-4.327 4.04zm-3.392-4.308l3.415 3.665 3.66-3.419-3.414-3.664-3.661 3.418z"/>
        <ellipse cx="9.411" cy="41.387" fill="#3F3D56" rx="3.021" ry="3.024"/>
        <path fill="#2F2E41" d="M9.411 50.122a8.727 8.727 0 0 1-8.062-5.392 8.74 8.74 0 0 1 1.891-9.52 8.72 8.72 0 0 1 9.51-1.893 8.735 8.735 0 0 1 5.388 8.07c-.006 4.822-3.91 8.73-8.727 8.735zm0-16.798c-4.449 0-8.055 3.61-8.055 8.063 0 4.453 3.606 8.063 8.055 8.063s8.055-3.61 8.055-8.063c-.005-4.451-3.608-8.058-8.055-8.063z"/>
        <path fill="#3F3D56" d="M59.671 62.1h69.535V96H59.671z"/>
        <path fill="#FFF" d="M94.183 73.723h1v22.323h-1z"/>
        <ellipse cx="94.483" cy="74.023" fill="#6C63FF" rx="3.154" ry="3.157"/>
        <path fill="#FFF" d="M94.483 87.482s-.45-9.7-9.687-8.573"/>
        <path fill="#FBBEBE" d="M191.01 154.319l-38.571 12.078-47.982-30.306-.002-.002-.157-.097-.026-.017-.382-.24-4.568-2.877c.009-.078.02-.153.035-.226.07-.356.232-.687.47-.96.082-.098.173-.19.271-.272h.002a2.3 2.3 0 0 1 .136-.108c.047-.037.097-.071.149-.103.883-.593 2.215-.846 3.602-.921a17.135 17.135 0 0 1 8.648 1.876c5.393 2.73 16.986 8.103 18.794 4.812 2.37-4.314-24.565-52.411-24.565-52.411-2.217-5.705-.595-7.569.422-8.155.03-.017.06-.035.089-.05a2.506 2.506 0 0 1 .517-.196.417.417 0 0 1 .05-.01l3.572 4.753.054.071.192.257.058.077 21.658 28.811c33.185-17.901 44.605 29.98 44.605 29.98l12.929 14.236z"/>
        <path fill="#3F3D56" d="M111.818 81.292a.937.937 0 0 1-.868.529c-.12 0-.238-.017-.354-.048-.801-.215-1.73-1.095-2.424-2.297-.677-1.173-.954-2.353-.797-3.136a2.506 2.506 0 0 1 .517-.196c-.278.546-.112 1.786.655 3.117.627 1.089 1.476 1.913 2.16 2.094a.586.586 0 0 0 .807-.468l.054.071.192.257.058.077zM104.298 135.992l-.026-.017-.382-.24c.003-.614-.463-1.622-1.49-2.633-.87-.848-1.878-1.404-2.574-1.43.083-.098.174-.19.272-.272h.002a2.3 2.3 0 0 1 .136-.108 5.617 5.617 0 0 1 2.465 1.501c1.13 1.111 1.75 2.377 1.597 3.199z"/>
    </g>
</svg>
