<svg xmlns="http://www.w3.org/2000/svg" width="242" height="221" viewBox="0 0 242 221">
    <g fill="none" fill-rule="evenodd">
        <path fill="#F2F2F2" fill-rule="nonzero" d="M209.487 126.183l-56.153-70.567a18.814 18.814 0 0 1-9.08 4.612c-10.572 2.094-20.896-5.166-23.06-16.216-1.53-7.81 1.432-15.42 7.03-19.95L109.08 0 0 93.753l100.408 126.183 109.079-93.753z"/>
        <ellipse cx="180.534" cy="16.682" stroke="#3F3D56" stroke-width=".583" rx="4.301" ry="4.325"/>
        <ellipse cx="237.367" cy="142.424" stroke="#3F3D56" stroke-width=".583" rx="4.301" ry="4.325"/>
        <ellipse cx="49.75" cy="27.527" stroke="#3F3D56" stroke-width=".583" rx="4.301" ry="4.325"/>
        <ellipse cx="139.715" cy="40.955" fill="#F2F2F2" fill-rule="nonzero" rx="15.83" ry="15.92"/>
        <path fill="#3F3D56" fill-rule="nonzero" d="M45.724 32.06h70.128c6.97 0 13.01 4.857 14.543 11.695l35.434 158.06a12.17 12.17 0 0 1-2.161 9.998 12.029 12.029 0 0 1-9 4.77l-72.092 3.572c-7.985.396-15.023-5.227-16.446-13.14l-20.1-111.75-1.496.43-3.846-21.181 1.539-.387-5.61-31.194a9.268 9.268 0 0 1 2.011-7.59 9.157 9.157 0 0 1 7.096-3.283z"/>
        <path fill="#6C63FF" fill-rule="nonzero" d="M106.62 35.467h8.186c4.844 0 9.033 3.393 10.066 8.152l34.012 156.772a6.448 6.448 0 0 1-1.137 5.23 6.374 6.374 0 0 1-4.683 2.544l-71.859 4.737c-4.197.276-7.931-2.66-8.677-6.823L43.505 44.04a7.312 7.312 0 0 1 1.571-5.961 7.225 7.225 0 0 1 5.556-2.612h7.766a3.42 3.42 0 0 1 3.3 2.543 3.02 3.02 0 0 0 2.913 2.246h36.867c2.695 0 4.935-2.087 5.142-4.79z"/>
        <path fill="#2F2E41" fill-rule="nonzero" d="M59.852 75.404l1.69-2.266-.294-.22-1.46 1.957-5.627-4.63-.231.286zM69.559 128.817l1.69-2.266-.294-.22-1.46 1.957-5.627-4.63-.232.286z"/>
        <path fill="#000" fill-rule="nonzero" d="M94.44 171.117c0 9.664 7.79 17.498 17.4 17.498 9.609 0 17.398-7.834 17.398-17.498 0-.219-.003-.436-.013-.654-.354-9.529-8.23-17.018-17.711-16.84-9.48.178-17.073 7.958-17.073 17.494z" opacity=".1"/>
        <path fill="#000" fill-rule="nonzero" d="M96.089 177.932c0 .22.004.437.013.654 3.476 7.406 11.595 11.396 19.54 9.605 7.947-1.79 13.595-8.884 13.596-17.074 0-.219-.003-.436-.013-.654-3.476-7.405-11.594-11.396-19.54-9.605-7.947 1.791-13.595 8.885-13.596 17.074z" opacity=".1"/>
        <ellipse cx="201.963" cy="68.855" fill="#2F2E41" fill-rule="nonzero" rx="10.725" ry="10.786"/>
        <path fill="#9F616A" fill-rule="nonzero" d="M213.534 204.019l2.04 8.793h-4.955l-2.04-9.966zM189.634 204.019v8.207l-4.954.586v-8.793zM214.99 110.812s-.582 12.603-1.165 13.483c-.583.879-5.83 13.482-5.83 13.482l-2.622-8.207s4.08-6.74 3.497-10.551c-.583-3.81-.215-8.5-.215-8.5l6.336.293z"/>
        <ellipse cx="198.378" cy="72.122" fill="#9F616A" fill-rule="nonzero" rx="8.161" ry="8.207"/>
        <path fill="#9F616A" fill-rule="nonzero" d="M205.081 73.001s-.291 11.725 1.75 13.483c2.04 1.759-11.659.293-11.659.293s2.914-8.207.583-9.965c-2.332-1.759 9.326-3.81 9.326-3.81z"/>
        <path fill="#2F2E41" fill-rule="nonzero" d="M194.298 86.191s1.748-3.224 4.08-2.93c2.332.292 9.91.878 10.2 1.465.292.586 1.167 2.638 1.75 3.224.582.586 4.954 1.465 5.246 4.983.291 3.517-10.493 24.913-10.493 24.913s1.458 4.983 1.166 6.155c-.291 1.173 1.457 4.69 1.166 6.156-.291 1.465 4.372 10.258 2.04 21.69v18.465s7.87 31.948 5.538 34.293c-2.332 2.345-10.201.88-11.658 0-1.458-.88-7.578-45.138-7.578-45.138l-2.915-14.948-.291 32.827s.583 27.552-1.457 28.431c-2.04.88-9.91 1.173-10.493-.586-.454-1.371-2.682-37.866-3.64-53.862a60.094 60.094 0 0 1 1.283-16.466c1.213-5.533 2.974-12.033 4.98-14.672 3.79-4.983 6.12-20.81 6.12-20.81l-4.954-9.086s2.915-2.931 4.663-2.931c1.75 0 5.247-1.173 5.247-1.173z"/>
        <path fill="#2F2E41" fill-rule="nonzero" d="M213.825 90.88l1.537 1.053s1.086 18.879.212 20.051c-.875 1.173-6.954.6-7.412-.432-.458-1.033 5.663-20.671 5.663-20.671z"/>
        <path fill="#9F616A" fill-rule="nonzero" d="M187.834 108.046c.853 5.952 1.6 11.25-2.761 16.044a81.992 81.992 0 0 1-14.728 12.83c-.535 1.425-8.39 11.891-8.79 7.716-.399-4.175 2.315-7.448 6.171-10.978 3.856-3.53 9.251-11.191 12.295-15.394 3.045-4.204 1.791-6.825 1.686-10.335-.106-3.511 4.93.16 6.127.117z"/>
        <path fill="#2F2E41" fill-rule="nonzero" d="M184.68 207.477s-.292 3.283-1.166 4.162c-.874.88-3.206 2.052-2.915 5.276.292 3.224 2.186 3.371 2.186 3.371l-.145-.733.874.293.146.44h8.16s.146-3.078-.145-4.543c-.292-1.466-.292-8.5-1.166-8.207-.875.293-3.206.586-3.79 1.759-.582 1.172-2.33.761-2.04-1.818zM214.408 207.477s.291 3.283 1.166 4.162c.874.88 3.206 2.052 2.914 5.276-.291 3.224-2.186 3.371-2.186 3.371l.146-.733-.874.293-.146.44h-8.16s-.146-3.078.145-4.543c.291-1.466.291-8.5 1.166-8.207.874.293 3.206.586 3.789 1.759.583 1.172 2.331.761 2.04-1.818zM188.469 89.415l-4.08.88s0 6.448-1.167 9.086c-1.165 2.638-3.206 8.793-2.331 9.086.874.293 9.035 4.397 9.618 2.052.583-2.345 2.04-21.104-2.04-21.104z"/>
        <ellipse cx="213.582" cy="54.653" fill="#2F2E41" fill-rule="nonzero" rx="10.725" ry="10.786"/>
        <path fill="#2F2E41" fill-rule="nonzero" d="M222.833 63.585a10.676 10.676 0 0 1-9.736 1.47 10.76 10.76 0 0 1-6.827-7.134 10.774 10.774 0 0 0 7.027 8.81 10.681 10.681 0 0 0 10.99-2.324 10.828 10.828 0 0 0 2.906-10.91 10.809 10.809 0 0 1-4.36 10.088z"/>
        <ellipse cx="204.823" cy="70.653" fill="#2F2E41" fill-rule="nonzero" rx="7.865" ry="7.91"/>
        <ellipse cx="198.209" cy="67.686" fill="#2F2E41" fill-rule="nonzero" rx="6.972" ry="5.483"/>
        <ellipse cx="196.349" cy="73.305" fill="#A0616A" fill-rule="nonzero" rx="1.323" ry="2.354"/>
    </g>
</svg>
