<svg xmlns="http://www.w3.org/2000/svg" width="296" height="196" viewBox="0 0 296 196">
    <g fill="none" fill-rule="nonzero">
        <path fill="#F2F2F2" d="M255.45 189.518l-61.85.205c-16.407-4.92-29.85-22.006-29.936-47.624-.016-3.859.276-7.713.874-11.526l49.816-11.167 38.43-8.614a76.338 76.338 0 0 1 7.894 8.19l-36.748 19.36-17.335 9.134 19.48-6.705 40.431-13.918a97.769 97.769 0 0 1 6.723 12.027l-12.199 12.58 13.8-9.014c.06.138.118.276.177.415 8.746 20.717-2.106 46.6-19.558 46.657zM245.285 104.993c-9.353 2.68-20.852 6.067-32.674 9.587a9855.02 9855.02 0 0 0-47.802 14.39l.009-.046a17.722 17.722 0 0 1 3.28-7.6c9.584-12.432 21.787-21.117 35.369-24.343h.001a51.08 51.08 0 0 1 11.657-1.388c10.805-.035 21.04 3.346 30.16 9.4zM68.24 150.786L57.545 182.74l-2.625 7.85a26.429 26.429 0 0 1-4.482 5.16h-.251c-13.473 0-25.707-.693-34.722-1.815l1.255-9.599 2.693-20.585 3.443-26.363a49.025 49.025 0 0 1 6.376-3.503l3.036 27.343 1.432 12.9.416-13.812.86-28.668a57.594 57.594 0 0 1 8.306-2.014l4.509 10.258-2.132-10.602c.092-.011.184-.025.275-.035 13.689-1.645 26.06 10.298 22.304 21.53zM17.93 141.099a2629.13 2629.13 0 0 0-1.643 22.85 6334.194 6334.194 0 0 0-1.96 29.836c-1.532-.202-2.965-.42-4.284-.646a49.04 49.04 0 0 1-3.327-7.2c-2.32-6.318-3.208-12.944-2.428-19.49v-.002c.313-2.639.897-5.239 1.743-7.76A39.96 39.96 0 0 1 17.93 141.1z"/>
        <path fill="#3F3D56" d="M100.376 189.21c0 3.603-22.337 6.521-49.937 6.54h-.251c-13.473 0-25.707-.692-34.722-1.814-.385-.052-.766-.1-1.138-.151-1.533-.202-2.966-.42-4.285-.646C3.737 192.043 0 190.683 0 189.21c0-1.193 2.445-2.308 6.716-3.272 2.256-.508 5.019-.972 8.203-1.38a87.07 87.07 0 0 1 1.802-.222c8.88-1.036 20.61-1.666 33.467-1.666 2.498 0 4.957.024 7.358.07 24.228.463 42.83 3.182 42.83 6.47z"/>
        <path fill="#A0616A" d="M40.455 131.96l1.26 9.815s.505 3.271 1.01 5.033c0 0-.505 9.31 3.53 15.854l2.523 4.781.504 7.046 6.305.755-1.261-10.569s-.504-5.033 0-7.046-2.522-11.324-2.522-11.324 4.035-13.086 1.009-16.358c-3.027-3.27-12.358 2.014-12.358 2.014z"/>
        <path fill="#2F2E41" d="M51.552 172.476s-2.774 0-3.027.755c-.252.755-4.287 7.55-4.287 7.55s-3.531 5.536 1.513 5.787c5.044.252 6.557-2.013 6.557-2.013s4.54-7.298 4.792-8.556c.253-1.258-1.895-3.955-1.895-3.955s-2.897 1.942-3.653.432z"/>
        <ellipse cx="55.083" cy="40.612" fill="#A0616A" rx="8.575" ry="8.556"/>
        <path fill="#A0616A" d="M48.147 43.255s0 9.31-3.279 10.066c-3.278.755 4.54 9.31 8.828 8.304 4.287-1.007 6.052-7.801 6.052-7.801s-3.783-4.781-2.27-7.298c1.514-2.516-9.331-3.271-9.331-3.271z"/>
        <path fill="#D0CDE1" d="M51.804 56.215a7.555 7.555 0 0 1-6.05-3.358s-3.534.59-4.038.841c-.505.252-9.332 3.02-11.35 8.808l8.071 10.317s-1.765 14.596 0 21.139a18.504 18.504 0 0 1-.757 11.827s-.756.252.505.755c1.26.503 30.265-5.284 30.769-6.794.504-1.51-.504-1.51.252-2.265.757-.755 2.774-5.285.757-6.795-2.018-1.51-3.279-18.118-3.279-18.118l5.296-13.338s-9.68-7.719-13.162-6.753c0 0-.709 3.734-7.014 3.734z"/>
        <path fill="#A0616A" d="M55.083 126.928s-.505 11.072.504 15.35c1.009 4.278 1.009 6.04 1.009 6.04s-1.513 7.298-.757 14.092c.757 6.795-.882 17.747-.882 17.747l6.179 1.882 3.783-19.126s3.026-11.827 1.26-17.363c0 0 1.01-16.86 1.766-18.622.757-1.762-12.862 0-12.862 0z"/>
        <path fill="#2F2E41" d="M48.315 42.136c.114-.802.354-1.678 1.04-2.112.712-.451 1.631-.266 2.472-.205.841.062 1.872-.148 2.148-.943.173-.496-.013-1.088.255-1.54.428-.717 1.735-.635 1.96-1.439.072-.254.002-.539.105-.782.14-.33.53-.46.878-.54a14.067 14.067 0 0 1 3.887-.342.517.517 0 0 0 .37-.073.45.45 0 0 0 .118-.207c.296-.881-.017-1.881-.605-2.602a6.373 6.373 0 0 0-2.254-1.607 16.535 16.535 0 0 0-6.082-1.612c-1.609-.101-3.297.073-4.668.92a6.604 6.604 0 0 0-1.124.894 9.837 9.837 0 0 0-2.772 5.505c-.301 2.078-.068 4.199.677 6.163.435 1.182 1.122 2.403 2.184 3.132.57.39 1.06.75 1.297.088.251-.703.004-1.919.114-2.698zM38.942 104.28s-3.784 5.032-3.027 8.555c.757 3.523 3.53 9.311 3.53 9.311s-1.512 11.325 1.01 11.325c2.522 0 13.367-.504 13.619-1.762.252-1.258-.757-13.84-.757-13.84s1.261 11.072 2.018 11.072c.756 0 13.871 1.258 14.376.503.504-.755 1.513-20.132 1.513-20.132s1.375-9.138-2.97-10.357c-4.344-1.218-29.312 5.324-29.312 5.324zM59.118 180.026s-4.54-2.517-4.792-.504c-.252 2.013-3.026 9.311-3.026 9.311s-2.775 5.788 3.278 6.04c6.053.251 7.566-2.517 7.566-3.775s-.678-9.89-.678-9.89l-2.348-1.182z"/>
        <path fill="#A0616A" d="M74.755 72.823l1.26 11.073s1.514 6.04.505 8.556c-1.009 2.516-4.792 14.092-4.792 14.092s-1.009-6.291-3.53-7.046l1.513-14.344s-3.611-8.95-2.815-10.137c.797-1.187 7.859-2.194 7.859-2.194zM29.862 73.578l.505 10.066s-1.766 8.808 1.765 18.119l.504 4.026 3.279 6.291s.757-6.04 2.27-6.04c0 0-1.513-4.025-1.009-6.29.504-2.265-.252-14.344-.252-14.344l1.26-9.772-8.322-2.056z"/>
        <path fill="#D0CDE1" d="M69.206 58.983h2.774s6.558 15.099 4.036 15.35c-2.522.252-10.593 2.265-10.845 1.258-.252-1.006 4.035-16.608 4.035-16.608zM32.636 60.24l-2.27 2.266S27.34 73.83 29.61 75.088c2.27 1.258 10.845 2.768 11.35 1.762.504-1.007-8.324-16.61-8.324-16.61z"/>
        <path fill="#3F3D56" d="M213.455 7.843v174.515c-.005 4.329-3.522 7.836-7.86 7.837H134.59a7.855 7.855 0 0 1-5.56-2.29 7.82 7.82 0 0 1-2.3-5.547V7.843c0-2.08.828-4.075 2.302-5.546A7.868 7.868 0 0 1 134.59 0h10.626v1.36c0 3.566 2.896 6.457 6.47 6.458H187.8a6.428 6.428 0 0 0 3.837-1.26 6.432 6.432 0 0 0 2.634-5.199V0h11.324c2.085 0 4.084.825 5.558 2.296a7.832 7.832 0 0 1 2.302 5.547z"/>
        <ellipse cx="179.974" cy="70.173" fill="#000" opacity=".1" rx="20.237" ry="4.038"/>
        <ellipse cx="150.563" cy="90.904" fill="#000" opacity=".1" rx="20.237" ry="4.038"/>
        <ellipse cx="167.293" cy="128.865" fill="#000" opacity=".1" rx="20.237" ry="4.038"/>
        <ellipse cx="161.626" cy="170.057" fill="#000" opacity=".1" rx="20.237" ry="4.038"/>
        <path fill="#6C63FF" d="M231.916 108.634h-61.52v20.271l5.15-5.14h56.37zM85.265 69.999h61.52V90.27l-5.15-5.14h-56.37z"/>
        <path fill="#FFF" d="M184.121 112.307h34.61v2.8h-34.61zM184.121 116.507h34.61v2.8h-34.61zM95.753 73.942h34.61v2.8h-34.61zM95.753 78.142h34.61v2.8h-34.61z"/>
        <path fill="#6C63FF" d="M296 31.942H179.974v38.231l9.714-9.692H296z"/>
        <path fill="#FFF" d="M198.053 38.404h79.869v6.462h-79.869zM198.053 48.096h79.869v6.462h-79.869zM154.298 161.983c2.953 5.465 9.221 7.81 9.221 7.81s1.48-6.514-1.474-11.979c-2.953-5.464-9.22-7.81-9.22-7.81s-1.48 6.514 1.473 11.979z"/>
        <path fill="#6C63FF" d="M156.328 160.185c5.332 3.2 7.385 9.558 7.385 9.558s-6.591 1.169-11.923-2.032-7.385-9.559-7.385-9.559 6.59-1.168 11.923 2.033z"/>
    </g>
</svg>
