<svg xmlns="http://www.w3.org/2000/svg" width="297" height="215" viewBox="0 0 297 215">
    <g fill="none" fill-rule="evenodd">
        <ellipse cx="127.286" cy="100.495" fill="#F2F2F2" fill-rule="nonzero" rx="100.802" ry="100.495"/>
        <ellipse cx="39.996" cy="208.534" fill="#F2F2F2" fill-rule="nonzero" rx="39.996" ry="6.38"/>
        <ellipse cx="235.114" cy="198.557" fill="#F2F2F2" fill-rule="nonzero" rx="61.886" ry="9.872"/>
        <path fill="#2F2E41" fill-rule="nonzero" d="M221.364 103.67s.527 1.751-2.459 3.327-3.864 7.529-.351 9.28c3.512 1.75 4.566 4.027 2.81 5.603-1.757 1.575-4.918 5.778-.703 6.828 4.215 1.05 4.742 3.152 3.513 4.027-1.23.876 2.81-1.575 2.81-1.575s.702 4.202 4.39 3.151c3.689-1.05 14.05-21.01 8.782-23.812-5.269-2.802-18.792-6.829-18.792-6.829z"/>
        <path fill="#FFB9B9" fill-rule="nonzero" d="M227.73 120.577s1.821 6.357-1.367 6.81a12.466 12.466 0 0 0-5.465 2.271l5.92 7.72h10.931l6.832-6.812s-9.11-6.81-7.287-10.897c1.821-4.087-9.565.908-9.565.908z"/>
        <path fill="#000" fill-rule="nonzero" d="M227.73 120.577s1.821 6.357-1.367 6.81a12.466 12.466 0 0 0-5.465 2.271l5.92 7.72h10.931l6.832-6.812s-9.11-6.81-7.287-10.897c1.821-4.087-9.565.908-9.565.908z" opacity=".1"/>
        <path fill="#FFB9B9" fill-rule="nonzero" d="M230.462 199.583l10.475 3.633 7.287.454-.455-6.357-15.03-4.432z"/>
        <path fill="#575A89" fill-rule="nonzero" d="M243.898 198.221s0 6.357.91 6.357c.911 0 13.208-1.362 16.852 0 3.643 1.362 9.109-3.633 6.376-6.357-2.733-2.724-7.19-6.81-9.971-5.903-2.781.908-14.167 3.179-14.167 3.179v2.724zM210.422 192.318s-5.465 10.898-1.821 11.806c3.643.908 7.742-.454 8.198-.908.455-.454 6.831-2.27 7.742-1.363.911.909.911-3.632.911-3.632l-15.03-5.903z"/>
        <path fill="#2F2E41" fill-rule="nonzero" d="M214.977 177.334s-8.654 11.806-2.277 14.984c6.376 3.179 36.89 3.179 39.168 0 2.277-3.178 3.188-13.167 0-14.076-3.188-.908-36.891-.908-36.891-.908z"/>
        <path fill="#000" fill-rule="nonzero" d="M214.977 177.334s-8.654 11.806-2.277 14.984c6.376 3.179 36.89 3.179 39.168 0 2.277-3.178 3.188-13.167 0-14.076-3.188-.908-36.891-.908-36.891-.908z" opacity=".2"/>
        <ellipse cx="231.373" cy="113.312" fill="#FFB9B9" fill-rule="nonzero" rx="10.475" ry="10.443"/>
        <path fill="#6C63FF" fill-rule="nonzero" d="M214.977 129.658l9.109-1.816s2.277 7.265 9.564 5.903 9.109-5.903 9.109-5.903 5.465 2.27 5.92 2.27c.456 0 6.377 2.27 6.377 3.633 0 1.362-6.832 14.984-6.832 14.984l.911 24.519-33.703-.908 2.278-24.065-2.733-18.617z"/>
        <path fill="#FFB9B9" fill-rule="nonzero" d="M209.967 141.464s-2.733 24.065-.91 25.881c1.82 1.816 9.108 6.81 9.108 6.81v-5.448l-3.644-6.81 3.644-15.893-8.198-4.54zM257.105 140.783s-1.594 24.746-1.594 25.654c0 .908-4.099 4.086-5.465 4.086-1.366 0-2.277-2.27-2.277-2.27l3.188-3.632-2.277-18.617 8.425-5.221z"/>
        <path fill="#2F2E41" fill-rule="nonzero" d="M252.779 175.518s20.495-11.351 20.95 0c.456 11.352-10.475 15.892-10.475 15.892s-28.238 8.442-29.376 5.356c-1.139-3.086-3.416-8.08-1.594-8.534 1.822-.454 4.099-1.362 5.01-.454.91.908 12.297-6.811 12.297-6.811l3.188-5.449z"/>
        <path stroke="#000" stroke-width=".54" d="M262.343 174.156s-4.099 1.816-5.465 3.178c-1.367 1.362-7.287 3.633-7.287 3.633" opacity=".2"/>
        <path fill="#6C63FF" fill-rule="nonzero" d="M217.71 130.566l-2.733-.908s-10.02 10.444-6.832 13.168c3.188 2.724 5.01 3.632 5.921 4.54.91.909 5.465 1.363 5.465 1.363l-1.821-18.163zM250.957 132.837l4.099.908s3.188 6.81 4.099 7.719c.91.908-1.366.454-2.733 2.27-1.366 1.816-2.732 4.995-5.465 4.995-2.733 0-6.376-4.541-6.376-4.541l6.376-11.351z"/>
        <path fill="#2F2E41" fill-rule="nonzero" d="M215.888 179.605s-17.307-12.26-23.228-3.179c-5.92 9.081 25.505 21.341 30.06 23.157 4.554 1.816 8.653 3.633 8.653 3.633s4.099-9.99 4.099-11.806c0-1.816-3.188-1.816-4.1-1.816-.91 0-5.009-.908-5.92-2.27-.91-1.363-9.564-7.72-9.564-7.72z"/>
        <path stroke="#000" stroke-width=".54" d="M206.323 176.426s4.555 3.633 8.654 4.54c4.099.909 5.465 3.18 5.465 3.18" opacity=".2"/>
        <path fill="#575A89" fill-rule="nonzero" d="M212.746 159.354l.364 19.225a2.41 2.41 0 0 0 2.44 2.361l35.886-.402a2.41 2.41 0 0 0 2.383-2.268l1.09-18.823a2.402 2.402 0 0 0-.655-1.79 2.418 2.418 0 0 0-1.755-.755h-37.34c-.647 0-1.268.26-1.722.72a2.403 2.403 0 0 0-.691 1.732z"/>
        <path fill="#2F2E41" fill-rule="nonzero" d="M231.933 100.193s.583 1.94-2.724 3.686c-3.308 1.745-4.28 8.34-.39 10.28 3.892 1.94 5.06 4.461 3.114 6.207-1.946 1.745-5.448 6.4-.779 7.564 4.67 1.164 5.253 3.492 3.891 4.462-1.361.97 3.113-1.746 3.113-1.746s.779 4.655 4.864 3.491c4.086-1.163 8.163-22.319 3.608-27.767-4.235-5.067-14.697-6.177-14.697-6.177z"/>
        <path fill="#2F2E41" fill-rule="nonzero" d="M230.69 98.197c0-2.842 8.528-.8 12.185 3.168 2.531 2.747 6.377 6.88 3.154 9.794-3.222 2.914 5.524 6.734 7.87 7.892 2.345 1.158 6.977 4.7 2.795 7.075-4.182 2.376-4.114 4.775-2.54 5.342 1.573.568-3.47-.844-3.47-.844s.51 4.692-3.74 4.67c-4.25-.023-16.44-23.304-13.527-29.775 2.707-6.017-2.727-7.322-2.727-7.322z"/>
        <path fill="#2F2E41" fill-rule="nonzero" d="M232.537 97.574c-11.404-.685-12.548 7.873-12.548 7.873.078 4.953 7.967 2.54 10.158 3.278 2.644-1.896 7.739-5.483 11.383-8.043a17.269 17.269 0 0 0-8.993-3.108z"/>
        <path stroke="#3F3D56" stroke-width=".54" d="M229.288 152.184s-10.23-47.796-74.256-82.468"/>
        <path fill="#3F3D56" fill-rule="nonzero" d="M157.67 68.674l.128.524-2.59.626.816 2.53-.515.164-.993-3.081z"/>
        <path fill="#6C63FF" fill-rule="nonzero" d="M18.505 201.02c0 6.054-3.61 8.167-8.063 8.167a13.901 13.901 0 0 1-.921-.031c-4.02-.284-7.141-2.506-7.141-8.136 0-5.826 7.468-13.178 8.029-13.722v-.001l.033-.032s8.063 7.701 8.063 13.755z"/>
        <path fill="#3F3D56" fill-rule="nonzero" d="M10.148 208.261l2.95-4.108-2.957 4.56-.008.47a13.2 13.2 0 0 1-.612-.027l.317-6.057-.002-.047.005-.008.03-.572-2.963-4.57 2.973 4.14.007.122.24-4.576-2.537-4.722 2.568 3.919.25-9.487v-.033.032l-.041 7.48 2.526-2.965-2.536 3.61-.067 4.097 2.358-3.932-2.368 4.535-.037 2.278 3.424-5.473-3.437 6.268-.083 5.066z"/>
        <path fill="#2F2E41" fill-rule="nonzero" d="M56.96 199.452l1.725-1.278s1.142 6.358-.132 7.31c-1.274.953-6.051 2.54-6.051 4.445 0 1.905-10.828 4.445-11.147 1.588-.318-2.858.956-4.445.956-4.445s5.095-5.08 5.732-6.033c.637-.952 2.23-2.857 2.23-2.857l6.688 1.27z"/>
        <path fill="#2F2E41" fill-rule="nonzero" d="M31.483 120.393l.13.79c.077.455.182 1.096.31 1.886 1.337 8.138 5.238 32.094 4.974 32.884-.319.953-2.548 4.446 0 5.398.245.092.51.39.793.86a18.424 18.424 0 0 1 1.347 3.17c1.519 4.393 3.143 11.426 4.083 16.297.41 2.14.69 3.86.774 4.762.028.209.032.42.01.629-.32 1.27 1.91 5.715 2.865 6.985.956 1.27 2.548 2.54 2.23 3.81-.319 1.27 7.962 4.763 8.917 2.54.955-2.222.955-3.492 1.274-4.127.318-.635.637-5.08-.956-5.715-1.592-.635-.636-11.748-2.229-13.97-.532-.74-1.344-3.246-2.194-6.259a205.577 205.577 0 0 1-1.003-3.699c-1.344-5.165-2.535-10.363-2.535-10.363l.318-37.148-17.516-2.223-.449.988-.895 1.959-.248.546zM30.527 181.354s-2.548-2.54-3.821 0c-1.274 2.54-2.548 12.383-4.778 14.605-2.229 2.223-5.095 13.335-1.91 13.97 3.184.635 6.688-.952 7.006-2.857.318-1.905 7.006-11.748 7.006-12.7 0-.953-4.458-4.445-4.458-4.445l.955-8.573z"/>
        <path fill="#2F2E41" fill-rule="nonzero" d="M69.7 102.93s-4.14 37.148-5.096 40.64c-.955 3.493-6.051 16.829-7.643 19.051-1.593 2.223-11.784 20.32-13.058 21.273-1.274.952-3.822 3.492-3.822 3.492s-4.777 4.763-5.414 5.716c-.637.952-6.05-1.905-6.37-3.81-.318-1.906.32-5.08.638-6.35.318-1.27-.637-3.176.318-4.128.956-.953 5.733-5.715 5.733-7.938 0-2.222 8.28-15.24 11.465-18.098 3.185-2.857 2.548-7.62 2.548-7.62V125.79l-17.516-5.397s.955-15.24 3.184-15.24c2.23 0 31.53-5.08 35.033-2.223z"/>
        <ellipse cx="43.903" cy="39.429" fill="#9F616A" fill-rule="nonzero" rx="10.51" ry="10.478"/>
        <path fill="#9F616A" fill-rule="nonzero" d="M47.406 47.684s1.274 4.763 2.867 6.033c1.592 1.27-4.14 6.667-4.14 6.667l-10.829.635-1.91-6.032s3.503-6.985 2.547-11.43c-.955-4.445 11.465 4.127 11.465 4.127z"/>
        <path fill="#6C63FF" fill-rule="nonzero" d="M51.865 53.082s-2.866.317-3.503 1.27c-.637.952-5.096 3.81-8.599 3.175-3.503-.635-5.733-1.588-6.37-1.27-.636.317-1.91 6.985-1.91 6.985l3.503 10.16-.637 27.94-.956 7.62s-1.91-2.54 5.733-.952 17.516-1.27 20.7-1.587c3.186-.318 8.6-1.27 8.918-3.175.319-1.905-.955-8.89-.955-8.89l-5.096-21.273-3.185-11.43-7.643-8.573z"/>
        <path fill="#D0CDE1" fill-rule="nonzero" d="M48.853 51.649s2.693-1.425 3.649-.155c.955 1.27 13.057 3.175 13.057 4.128 0 .952 2.548 26.67 1.911 28.893-.637 2.222 1.274 4.762 1.274 4.762l2.23 9.526s6.05 18.097 3.503 18.732c-2.548.635-4.777 0-5.733 0-.955 0-.637-12.065-3.185-15.24-2.547-3.175-6.05-11.113-6.688-12.7-.637-1.588-8.598-23.495-8.28-26.036.319-2.54-1.738-11.91-1.738-11.91zM35.623 53.082s-2.548 0-2.866.635c-.319.635-3.504 4.762-4.778 5.715-1.273.952-5.732 5.08-5.732 6.033 0 .952 9.236 7.937 9.236 7.937s3.821 18.733 1.91 25.083c-1.91 6.35-4.777 21.59-3.503 22.543 1.274.952 4.14 1.27 4.14 0s1.911-14.923 3.504-17.78c1.592-2.858 6.37-20.956 4.458-26.036-1.91-5.08-6.37-24.13-6.37-24.13z"/>
        <path fill="#9F616A" fill-rule="nonzero" d="M77.661 84.515s.319 9.842-3.184 14.923c-3.504 5.08-5.733 10.795-5.733 10.795s-5.732-1.588-6.688-3.493c-.955-1.905-7.006-.317-7.006-.952s7.325-3.81 7.962-4.445c.637-.635 2.866-.635 4.14-1.905 1.274-1.27 1.592-4.128 1.592-4.128l1.274-8.255 7.643-2.54z"/>
        <path fill="#2F2E41" fill-rule="nonzero" d="M51.142 32.969c.808-.073 1.642-.154 2.357-.538 1.6-.861 2.025-3.312.806-4.659a6.035 6.035 0 0 0-1.12-.897l-2.42-1.643c-1.07-.727-2.167-1.465-3.416-1.807-1.129-.31-2.322-.278-3.491-.206-2.27.14-4.554.431-6.688 1.212-2.135.782-4.126 2.089-5.42 3.954-2.05 2.956-2.077 6.944-.948 10.357 1.129 3.414 3.273 6.386 5.386 9.298l1.096-5.333c.098-.475.224-.996.62-1.277.985-.698 2.19.736 3.399.727.777-.006 1.429-.643 1.723-1.36.295-.716.314-1.51.382-2.281.144-1.634.717-3.907 2.27-4.808 1.445-.84 3.838-.592 5.464-.74z"/>
        <path fill="#000" fill-rule="nonzero" d="M50.552 120.65s-1.076 31.017-1.713 31.97c-.636.952 0-32.068 0-32.068l1.713.097z" opacity=".1"/>
        <path fill="#D0CDE1" fill-rule="nonzero" d="M63.012 55.622h2.547s10.828 14.605 9.555 15.558c-1.274.952 0 3.492 0 3.492l2.547 4.763s3.185 2.857 2.23 3.492c-.956.635-2.23 3.175-2.23 3.175s-6.37-.952-8.28 2.858l-4.13-5.199-2.24-28.14z"/>
        <path fill="#2F2E41" fill-rule="nonzero" d="M55.18 63.924l8.742-3.61 6.708 16.243-8.743 3.61z"/>
        <ellipse cx="62.224" cy="68.245" fill="#6C63FF" fill-rule="nonzero" rx="1.892" ry="1.733" transform="rotate(-22.438 62.224 68.245)"/>
        <path fill="#9F616A" fill-rule="nonzero" d="M56.642 81.022s-22.93 19.05-26.752 13.018c-3.821-6.033 4.14-11.113 4.14-11.113s7.007.318 14.969-4.762l7.962-3.493s7.268-10.345 9.745-6.406c2.477 3.94-4.228 10.796-10.064 12.756z"/>
        <path fill="#D0CDE1" fill-rule="nonzero" d="M25.75 64.194l-3.503 1.27v9.526l-1.274 1.905s.318 3.81 1.274 4.762c.955.953 2.866.635 2.23 2.858a11.999 11.999 0 0 0-.32 4.445s5.733 7.303 6.052 6.35c.318-.953 4.777-12.7 5.414-12.7.637 0-6.37-18.416-6.37-18.416H25.75z"/>
        <path fill="#2F2E41" fill-rule="nonzero" d="M67.63 112.297s3.292-3.176 1.646-3.334c-1.647-.159-7.38-3.334-8.335-1.747-.955 1.588 6.688 5.08 6.688 5.08z"/>
        <ellipse cx="130.258" cy="49.305" fill="#57B894" fill-rule="nonzero" rx="4.594" ry="2.425"/>
        <path stroke="#3F3D56" stroke-width=".54" d="M147.824 57.387c-10.359-3.9-20.718-3.9-31.078 0V44.724a53.946 53.946 0 0 1 31.078 0v12.663z"/>
        <path stroke="#3F3D56" stroke-width=".54" d="M143.5 54.769c-7.476-2.816-14.953-2.816-22.43 0v-9.14a38.935 38.935 0 0 1 22.43 0v9.14z"/>
        <ellipse cx="131.88" cy="48.227" stroke="#3F3D56" stroke-width=".54" rx="4.594" ry="2.425"/>
        <ellipse cx="133.15" cy="64.539" fill="#57B894" fill-rule="nonzero" rx="4.594" ry="2.425" transform="rotate(-11.535 133.15 64.54)"/>
        <path stroke="#3F3D56" stroke-width=".54" d="M151.983 68.957c-10.933-1.757-21.083.308-30.451 6.196l-2.54-12.408a53.927 53.927 0 0 1 30.45-6.195l2.54 12.407z"/>
        <path stroke="#3F3D56" stroke-width=".54" d="M147.22 67.253c-7.89-1.268-15.216.223-21.977 4.472l-1.833-8.955a38.921 38.921 0 0 1 21.977-4.472l1.834 8.955z"/>
        <ellipse cx="134.523" cy="63.16" stroke="#3F3D56" stroke-width=".54" rx="4.594" ry="2.425" transform="rotate(-11.535 134.523 63.16)"/>
        <ellipse cx="132.197" cy="79.611" fill="#57B894" fill-rule="nonzero" rx="2.432" ry="4.58" transform="rotate(-86.019 132.197 79.61)"/>
        <path stroke="#3F3D56" stroke-width=".54" d="M149.158 88.89c-10.063-4.609-20.397-5.326-31.003-2.151l.882-12.633a53.944 53.944 0 0 1 31.003 2.151l-.882 12.633z"/>
        <path stroke="#3F3D56" stroke-width=".54" d="M145.027 85.978c-7.263-3.326-14.721-3.843-22.376-1.552l.636-9.118a38.933 38.933 0 0 1 22.376 1.553l-.636 9.117z"/>
        <ellipse cx="133.89" cy="78.648" stroke="#3F3D56" stroke-width=".54" rx="2.432" ry="4.58" transform="rotate(-86.019 133.89 78.648)"/>
        <path stroke="#3F3D56" stroke-width=".54" d="M112.13 57.681S92.27 54.972 78.086 63.26"/>
        <path fill="#3F3D56" fill-rule="nonzero" d="M78.563 60.475l.515.162-.806 2.533 2.593.616-.126.525-3.158-.752z"/>
    </g>
</svg>
