<svg xmlns="http://www.w3.org/2000/svg" width="295" height="224" viewBox="0 0 295 224">
    <defs>
        <linearGradient id="a" x1="50.006%" x2="50.006%" y1="100.001%" y2="-.003%">
            <stop offset="0%" stop-color="gray" stop-opacity=".25"/>
            <stop offset="54%" stop-color="gray" stop-opacity=".12"/>
            <stop offset="100%" stop-color="gray" stop-opacity=".1"/>
        </linearGradient>
    </defs>
    <g fill="none" fill-rule="nonzero">
        <path fill="#6C63FF" d="M291.188 64.582c-.051.24-.1.48-.156.718-1.773 8.174-4.669 16.05-8.975 23.284-.143.24-.286.481-.432.721a66.906 66.906 0 0 1-10.117 12.773c-2.145 2.118-4.484 4.132-7.267 5.583-3.898 2.037-8.455 2.864-12.934 3.54-4.652.704-9.37 1.293-14.072 1.928-1.672.222-3.333.457-4.985.706-4.543.673-9.055 1.45-13.458 2.483-5.444 1.273-10.72 2.94-15.704 5.285-.398.18-.791.371-1.18.573a64.499 64.499 0 0 0-2.882 1.519c-.193.11-.382.208-.568.316-.562.313-1.113.635-1.664.959l-.022.013c-.365.214-.724.433-1.08.652-2.037 1.237-4.031 2.529-6.025 3.828l-1.253.811-1.943 1.256c-.378.246-.764.492-1.145.735-.27.179-.54.357-.835.54a108.967 108.967 0 0 1-5.376 3.197 59.872 59.872 0 0 1-9.298 4.194l-.043.016a42.406 42.406 0 0 1-4.939 1.394c-.964.211-1.931.384-2.91.516-2.613.371-5.264.408-7.887.111-5.152-.597-9.98-2.575-15.129-3.242-10.6-1.351-20.895 3.002-30.864 6.412-2.451.837-4.92 1.622-7.407 2.353-1.654.49-3.312.951-4.985 1.397a187.507 187.507 0 0 1-31.255 5.483 88.01 88.01 0 0 1-13.278.294 48.747 48.747 0 0 1-4.982-.54c-5.592-.865-10.806-2.678-15.014-5.999-3.447-2.726-5.914-6.28-7.791-9.997a43.634 43.634 0 0 1-4.298-13.751 42.556 42.556 0 0 1-.303-2.956 42.32 42.32 0 0 1 1.859-15.632c1.783-5.652 4.754-11.078 6.062-16.774.054-.241.105-.482.154-.721.178-.865.31-1.74.397-2.619.667-6.998-1.891-13.82-3.898-20.665a109.949 109.949 0 0 1-.83-2.997c-1.858-7.236-2.374-14.982-.718-22.205.05-.24.113-.48.172-.719a32.514 32.514 0 0 1 6.111-12.518c3.101-3.891 7.173-7.13 11.522-9.976a84.635 84.635 0 0 1 6.575-3.888 87.576 87.576 0 0 1 4.982-2.457c13.629-6.214 29.176-9.249 44.55-8.579.81.035 1.62.079 2.431.138.81.06 1.697.13 2.545.208 9.903.962 19.54 3.283 29.108 5.82 3.207.852 6.408 1.724 9.606 2.58 1.424.38 2.845.757 4.269 1.125 6.972 1.802 14.047 3.434 21.212 4.653 1.658.286 3.319.548 4.981.783 5.772.849 11.59 1.342 17.422 1.479 2.267.045 4.536.025 6.805-.06a95.802 95.802 0 0 0 3.439-.186c11.846-.835 23.295-3.63 34.762-6.24a741.57 741.57 0 0 1 4.985-1.118c2.182-.481 4.365-.946 6.559-1.375 13.65-2.684 25.818-1.14 38.51 4.396 2.884 1.256 5.767 2.775 7.534 5.134 1.766 2.359 2.21 5.255 2.539 8.052.467 3.983.772 8.017.889 12.073 0 .237 0 .478.016.718.184 8.193-.427 16.464-2.094 24.465z" opacity=".1"/>
        <path fill="#6C63FF" d="M200.64 88.584h-.891V89.305h1.01l-.118-.721zm-10.111 0a.046.046 0 0 0 0 .019c-.024.197-.051.394-.078.594v.108h7.726v-.043l.54-.678h-8.188zm-20.707 0V65.3h8.888c-.095-.062-.192-.127-.292-.186l-.13-.084-.167-.102c-.097-.057-.194-.114-.297-.168-.103-.054-.165-.092-.251-.138l-.06-.032h-7.691v-1.284l-.208.081-.219.103h-.016l-.046.024-.138.073-.137.073c-.135.073-.27.154-.406.238l-.13.087-.27.172c-.348.233-.69.476-1.045.703-.089.057-.178.114-.27.165a7.765 7.765 0 0 1-.592.319c-.086.043-.17.08-.27.116l-.146.057-.135.046c-.317.11-.642.195-.972.254v22.762h-13.327c0 .027.02.048.027.075.073.216.146.43.217.646h13.102v24.956h.202l.235.014.424.024.679.081.31.03.338.035h.051l.597.073.127.016.29.04.413.06.991-.043.135.024c.054 0 .11.016.168.027V89.305h20.623v-.108c.027-.2.054-.397.078-.594a.046.046 0 0 1 0-.019h-20.68zm30.819 0h-.892V89.305h1.01l-.118-.721zm-10.669 0l-.094.721h8.615l.586-.721h-9.107zm-20.15 0V65.3h8.888c-.095-.062-.192-.127-.292-.186l-.13-.084-.167-.102c-.097-.057-.194-.114-.297-.168-.103-.054-.165-.092-.251-.138l-.06-.032h-7.691v-1.284l-.208.081-.219.103h-.016l-.046.024-.138.073-.137.073c-.135.073-.27.154-.406.238l-.13.087-.27.172c-.348.233-.69.476-1.045.703-.089.057-.178.114-.27.165a7.765 7.765 0 0 1-.592.319c-.086.043-.17.08-.27.116l-.146.057-.135.046c-.317.11-.642.195-.972.254v22.762h-13.327c0 .027.02.048.027.075.073.214.15.43.22.646h13.099v24.954h.202l.235.013.424.024.679.084.31.03.338.035h.051l.597.073.127.016.29.04.413.06.991-.043.135.024c.054 0 .11.016.168.027V89.305h20.082c.033-.24.062-.48.095-.721h-20.156zm67.413-48.486h56.047c0-.24 0-.48-.016-.718h-56.031V11.11c-1.665.361-3.326.734-4.985 1.12v27.15h-60.955l-.154-.138.232-.205 22.673-20.38c-2.269.087-4.537.107-6.805.06L169.82 34.373V17.244a166.394 166.394 0 0 1-4.982-.783v17.123l-25.472-22.9c-3.199-.857-6.4-1.73-9.607-2.58L164.4 39.241l-.154.138h-63.592V2.308c-.848-.08-1.697-.15-2.545-.209-.81-.059-1.62-.102-2.431-.137V39.38H51.12V10.54a98.19 98.19 0 0 0-4.982 2.457V39.38H21.93c-.059.237-.121.478-.172.718h24.38v24.484h-23.04c.067.24.137.48.208.718h22.832v23.284H26.807c-.049.24-.1.48-.154.721h19.485v65.101c1.621.251 3.299.427 4.982.54v-65.64h44.55v59.858c1.672-.446 3.33-.908 4.984-1.397V89.305h64.187v52.299a42.406 42.406 0 0 0 4.938-1.395l.043-.016V89.305h62.428v24.53c1.657-.243 3.319-.477 4.985-.7v-23.83h44.39c.146-.24.29-.48.432-.721h-44.822V65.3h53.797c.056-.237.105-.478.156-.718h-53.953V40.098zm-186.115 0h44.55v24.484H51.12V40.098zm0 48.486V65.3h44.55v23.284H51.12zm49.534-48.486h64.187v24.484h-64.187V40.098zm0 48.486V65.3h64.187v23.284h-64.187zm131.596 0h-62.428V65.3h62.428v23.284zm0-24.002h-62.428V40.755l.875-.657h61.553v24.484zM190.53 88.584a.046.046 0 0 0 0 .019c-.024.197-.051.394-.078.594v.108h7.726v-.043l.54-.678h-8.188zm10.112 0h-.892V89.305h1.01l-.118-.721zm-30.819 0V65.3h8.888c-.095-.062-.192-.127-.292-.186l-.13-.084-.167-.102c-.097-.057-.194-.114-.297-.168-.103-.054-.165-.092-.251-.138l-.06-.032h-7.691v-1.284l-.208.081-.219.103h-.016l-.046.024-.138.073-.137.073c-.135.073-.27.154-.406.238l-.13.087-.27.172c-.348.233-.69.476-1.045.703-.089.057-.178.114-.27.165a7.765 7.765 0 0 1-.592.319c-.086.043-.17.08-.27.116l-.146.057-.135.046c-.317.11-.642.195-.972.254v22.762h-13.327c0 .027.02.048.027.075.073.216.146.43.217.646h13.102v24.956h.202l.235.014.424.024.679.081.31.03.338.035h.051l.597.073.127.016.29.04.413.06.991-.043.135.024c.054 0 .11.016.168.027V89.305h20.623v-.108c.027-.2.054-.397.078-.594a.046.046 0 0 1 0-.019h-20.68z" opacity=".1"/>
        <path fill="#6C63FF" d="M72.54 23.243h.386a.784.784 0 0 1-.473-.63c0-.497.743-.902 1.65-.902h11.552c.908 0 1.648.405 1.648.902 0 .495-.74.903-1.648.903h-.386c.26.108.44.348.473.627 0 .424-.54.78-1.262.875h3.326c.905 0 1.648.406 1.648.903s-.743.902-1.648.902H76.252c-.905 0-1.648-.408-1.648-.902 0-.424.54-.778 1.261-.876H72.54c-.908 0-1.648-.405-1.648-.902s.74-.9 1.648-.9zM197.736 31.827h.387a.784.784 0 0 1-.47-.63c0-.496.74-.902 1.648-.902h11.551c.908 0 1.65.406 1.65.903 0 .494-.742.9-1.65.9h-.384c.259.11.438.35.47.63 0 .423-.54.78-1.261.875h3.325c.908 0 1.648.405 1.648.902s-.74.903-1.648.903h-11.551c-.908 0-1.65-.408-1.65-.903 0-.424.54-.78 1.261-.875h-3.326c-.905 0-1.647-.406-1.647-.903s.742-.9 1.647-.9zM54.81 68.565h.384a.78.78 0 0 1-.47-.63c0-.495.742-.903 1.647-.903h11.555c.905 0 1.648.408 1.648.903 0 .497-.743.902-1.648.902h-.387a.773.773 0 0 1 .47.627c0 .425-.54.781-1.261.876h3.325c.908 0 1.65.408 1.65.902 0 .495-.742.903-1.65.903h-11.54c-.908 0-1.648-.406-1.648-.903 0-.421.54-.778 1.261-.875H54.81c-.908 0-1.65-.406-1.65-.903s.753-.9 1.65-.9z" opacity=".1"/>
        <ellipse cx="215.739" cy="153.288" fill="#6C63FF" opacity=".1" rx="17.549" ry="57.762" transform="rotate(-78.45 215.74 153.288)"/>
        <path fill="#3A3768" d="M209.215 103.997s3.072-15.08 14.799-13.684c0 0 8.104.557 9.77 5.864v11.73l-24.569-3.91z"/>
        <path fill="#D48A9B" d="M273.437 109.584l-104.43-8.66-13.403 2.794.838 18.712.913.11 1.04 28.1 102.475 18.43 10.892-9.217v-30.46l1.394-.819z"/>
        <path fill="#000" d="M273.577 109.584l-.28 18.99-11.309 5.307-.14-19.83z" opacity=".05"/>
        <path fill="#000" d="M271.762 129.412l.138 29.885-10.89 9.216.7-34.632z" opacity=".05"/>
        <path fill="#000" d="M157.495 123.66l104.299 12.729.054-2.416-104.43-11.265z" opacity=".05"/>
        <path fill="#000" d="M271.762 130.509v-1.097l-10.333 4.561v2.421z" opacity=".05"/>
        <path fill="#EFC6CD" d="M155.464 103.718l13.402-2.794 104.43 8.66-11.727 4.467z"/>
        <path fill="#000" d="M262.172 110.122l5.124.335-8.493 2.543-4.325-.311z" opacity=".1"/>
        <path fill="#FFF" d="M262.172 109.898l5.124.335-8.493 2.545-4.325-.313z"/>
        <path fill="#000" d="M240.02 107.598l5.124.338-8.493 2.543-4.325-.314z" opacity=".1"/>
        <path fill="#FFF" d="M240.02 107.377l5.124.335-8.493 2.542-4.325-.31z"/>
        <path fill="#000" d="M250.645 108.86l5.127.335-8.493 2.546-4.328-.314z" opacity=".1"/>
        <path fill="#FFF" d="M250.645 108.639l5.127.335-8.493 2.542-4.328-.313z"/>
        <ellipse cx="134.619" cy="202.573" fill="#6C63FF" opacity=".1" rx="54.699" ry="11.262"/>
        <path fill="url(#a)" d="M194.519 110.346c-.584-5.128-2.893-10.022-2.893-10.022l.175-1.729s.038-.865-.019-2.162c.007-.81.113-1.615.316-2.399.473-1.5-.591-3.342-.71-3.513-.119-.17.06-3.458-1.005-5.071-1.064-1.613-8.153-4.613-8.153-4.613s-.38-.797-.918-1.73l.048-.094a10.16 10.16 0 0 0-1.62-2.186c-.436-.464-.854-.73-1.192-.6a9.729 9.729 0 0 1-.313-1.37c.07.02.143.038.213.052.293.068.596.075.891.022.66-.149 1.097-.74 1.465-1.297 1.831-2.784 3.409-5.837 3.73-9.13a5.805 5.805 0 0 0-.094-2.016 6.802 6.802 0 0 0-.632-1.473 11.835 11.835 0 0 0-1.783-2.63c-1.262-1.328-3.002-2.142-4.79-2.623a16.578 16.578 0 0 0-6.186-.462c-.54.062-1.08.151-1.621.187-.686.03-1.372.018-2.056-.036l-3.536-.205-.016-.054-.59-.035c-.232.462 0 1.01.29 1.443.289.432.621.883.597 1.394-.025.51-.395.922-.684 1.351-.289.43-.508.992-.219 1.413a.81.81 0 0 0 .144.157c.305.316.837.351 1.299.346h.081a8.802 8.802 0 0 0-1.791 5.328 8.96 8.96 0 0 0 4.887 7.939c.051.176.103.357.151.54.536 1.898.728 3.877.568 5.842l-.063.135-.037-.143s-4.166 2.826-5.403 3.575c-1.238.748-2.48 3.286-2.54 3.977-.06.692-2.01 11.125-2.01 11.125a25.563 25.563 0 0 0-.978 3.22l-2.488 2.186s-5.132.463-6.618.117l.043.286c-1.31-.3-2.645-.48-3.987-.54a4.227 4.227 0 0 0-2.162.289l-.05.024-.041.019a8.562 8.562 0 0 0-2.27.638c-.086.035-.164.07-.24.105l.016-.354-5.554-.286-2.837-.576s-1.005-.81-1.596-.692c-.592.12-1.832-.691-1.832-.691a4.952 4.952 0 0 0-.913-.568c-.094-.654-.154-1.05-.154-1.05s-2.207-8.76-3.86-13.911c-1.108-3.44-2.702-5.134-3.642-5.872-.419-.73-.694-1.2-.694-1.2-.181-.632-1.175-2.055-1.43-2.09-.04-.065-.07-.098-.086-.098a.316.316 0 0 0-.159.024c-.465-2.313-.735-5.212-.024-7.738a8.542 8.542 0 0 0 3.117-6.582v-.114-.116a8.504 8.504 0 0 0-2.007-5.485l-.092-.103a.716.716 0 0 0 .07-.057c.414-.335.61-.87.511-1.394-.122-.519-.527-.927-.735-1.419a9.188 9.188 0 0 1-.3-1.156 3.567 3.567 0 0 0-.85-1.483l.04.108c-1.06-1.192-2.88-1.784-4.52-1.519-1.218.195-2.353.762-3.576.938-.878.124-1.773.043-2.656.132a6.89 6.89 0 0 0-2.356.681 1.35 1.35 0 0 0-.5.367c-.125.214-.21.45-.248.695-.3 1.094-1.25 1.875-1.94 2.788a6.526 6.526 0 0 0-1.307 3.605c-.027.332.005.666.094.986.06.192.152.373.195.568.135.594-.176 1.186-.327 1.775a3.457 3.457 0 0 0 .192 2.253c1.067 2.389 4.57 3.186 5.3 5.694a6.971 6.971 0 0 0 1.753.54c.05.249.092.5.127.754a.203.203 0 0 0-.046.027c-.945.921-1.18 2.702-1.18 2.702l-.114.092c-.386.319-1.707 1.389-2.9 2.213-1.42.98-3.783 4.266-5.436 5.247-1.654.981-3.015 7.026-2.658 9.222.356 2.197 1.831 8.358 1.24 10.606-.592 2.248.886 12.508.886 12.508.991.189 1.961.476 2.896.859l-.03.448-.09 1.351s-2.676 9.685-1.653 17.14c1.024 7.455-.472 8.222-.472 8.222s.313 3.305-.473 4.458c-.786 1.154-.946 3.689-.946 3.689s-.078 5.687.079 7.295c.156 1.608.235 4.537-.316 5.229-.551.691-1.575 5.223-1.497 6.606.078 1.384-1.97 4.537-.867 8.609 1.102 4.072-3.242 4.15-3.242 4.15s.554 6.215 1.734 7.993l.173.254-.092.327c-.445 1.621-1.056 4.18-.632 4.799.63.924.946.767.946.767l.235 4.15s4.727 3.997 8.353 3.845c3.625-.15 2.915-3.845 2.915-3.845l-3.088-8.008-.105-.27 3.43-6.486s.946-2.842 1.18-3.842c.236-1 1.52-4.542 1.52-4.542s3.24-7.685 3.308-8.609c.068-.924.317-5.915.946-6.917.63-1.003 2.364-6.755 2.364-6.755l.043.038c.6.589.826 1.46.589 2.267-.397 1.459-.16 4.455-.16 4.455s-.156 2.538-.472 3.845c-.316 1.308-.392 11.99.16 14.524.44 2.03.426 5.828.404 7.266-.37 1.526-.694 3.423-.091 3.647 1.026.387 6.226.308 6.226.308s2.205-.77 5.2 1.922c2.997 2.69 12.211-.768 12.211-.768s2.837-.77-2.758-2.996c-3.903-1.554-6.424-2.589-8.072-3.697.038-.073.078-.146.114-.224 0 0-2.286-2.162-.395-5.993 1.891-3.832 1.813-7.071 1.813-7.071l.316-12.913-.946-17.142-.732-17.99.13-.044c.124 3.308.77 11.181 4.15 9.655 4.254-1.922.629-6.918.629-6.918l-1.91-3.723.57-.195-2.137-6.906a15.58 15.58 0 0 1-.08-4.072c.041-.793.025-1.587-.05-2.378 2.8-.489 5.479-1.008 5.96-.889.567.138 3.741.165 4.99.17-.408.32-.735.635-.735.635l5.081 3.421s1.724-.943 2.083-1.943c.354-.089.68-.263.95-.508.055 1.181.368 2.46 1.46 2.489a1.89 1.89 0 0 0 .794-.157l8.31-1.645-.714 4.455.498.884c-.252 3.759-.54 7.75-.795 11.26l-.116.767.06.013c-.395 5.404-.71 9.498-.71 9.498a4.98 4.98 0 0 1 2.071-2.083l.054 8.02s.416 12.68.416 14.41c0 1.729.057 5.59.057 5.59s.889 4.726 1.418 6.282c.53 1.557.946 8.647.946 8.647s1.242 1.959.71 2.702c-.532.743 2.07 2.362 2.07 2.362s-1.657 2.248-1.775 3.747c-.014.173.156.357.464.54a4.82 4.82 0 0 1-.308.233c-.767.513-1.89.87-3.582.724-4.611-.405-7.861 3.861-5.025 4.726 2.837.865 11.347 1.038 11.347 1.038s2.577-1.608 4.592-.884a49.11 49.11 0 0 0 .068 3.448l-.025.019c-1.205 1.08-3.512 2.94-5.765 3.699-3.241 1.094-3.96 5.534.235 6.11 4.196.575 10.342-.692 10.342-.692s3.19-2.362 5.613-2.88c2.423-.52 4.493-1.673 4.08-3.057-.27-.883-.965-3.2-1.435-4.755a12.811 12.811 0 0 0-.081-.27c.073-.163.146-.33.213-.503 0 0-1.24-6.455-.235-8.069 1.005-1.613.473-17.755.473-17.755s-1.715-4.09-.827-6.568c.89-2.478-1.418-5.996-1.418-5.996s.251-7.05.927-10.979l.089-.486a22.127 22.127 0 0 0 3.296-1.273s.591-8.879.945-10.894c.035-.19.084-.495.143-.892l.27-1.424.32-1.621 1.08-5.526 1.95-2.524 5.025-5.134s1.208-2.712.616-7.844zM117.03 78.643l-.038.027a.47.47 0 0 1-.013-.06.243.243 0 0 0 .051.033zm49.645 6.293l-.195.424.711-.707-.964 1.08.324-.68.124-.117zm-4.798 9.917l-.594 1.586.38-1.138.214-.448z"/>
        <path fill="#585B8A" d="M146.373 111.02s-.661 4.406 1.324 4.463c1.986.057 3.312-3.4 3.312-3.4l-.81-2.763-3.826 1.7z"/>
        <path fill="#000" d="M146.373 111.02s-.661 4.406 1.324 4.463c1.986.057 3.312-3.4 3.312-3.4l-.81-2.763-3.826 1.7z" opacity=".2"/>
        <path fill="#636992" d="M101.9 206.412c-3.534.154-8.143-3.84-8.143-3.84l-.23-4.147s-.305.154-.92-.767c-.414-.62.18-3.183.615-4.796.21-.79.384-1.351.384-1.351l7.753 2.075.37.98 3.01 8.004s.691 3.688-2.84 3.842zM137.523 194.664s-8.982 3.456-11.886.767c-2.904-2.688-5.068-1.92-5.068-1.92s-5.068.077-6.067-.309c-.59-.224-.27-2.145.097-3.675.248-1.056.519-1.929.519-1.929s8.828-2.997 10.211-1.154a6.622 6.622 0 0 0 1.472 1.405c1.6 1.157 4.098 2.205 8.05 3.818 5.436 2.227 2.672 2.997 2.672 2.997z"/>
        <path fill="#FFD6D6" d="M129.462 124.467l2.456 4.915s3.533 4.994-.613 6.912c-4.147 1.919-4.069-11.057-4.069-11.057l2.226-.77z"/>
        <path fill="#DCE6F2" d="M119.172 81.845s2.688 1.23 4.301 6.374c1.613 5.145 3.763 13.902 3.763 13.902s1.46 9.906 1.227 12.365a15.946 15.946 0 0 0 .078 4.07l2.072 6.911-4.147 1.46-6.372-24.422-.922-20.66z"/>
        <path fill="#000" d="M119.172 81.845s2.688 1.23 4.301 6.374c1.613 5.145 3.763 13.902 3.763 13.902s1.46 9.906 1.227 12.365a15.946 15.946 0 0 0 .078 4.07l2.072 6.911-4.147 1.46-6.372-24.422-.922-20.66z" opacity=".05"/>
        <path fill="#000" d="M101.359 193.588l.37.981-.454.868c-1.767.767-6.143.154-6.143.154s-.81-1.03-1.918-2.724c.21-.789.384-1.351.384-1.351l7.761 2.072zM127.082 188.211c-2.24 5.075-9.852 3.191-11.967 2.556-.349-.105-.54-.175-.54-.175s.013-.414.018-1.065c.249-1.056.52-1.929.52-1.929s8.828-2.997 10.21-1.154a6.622 6.622 0 0 0 1.473 1.405c.085.13.18.25.286.362z" opacity=".1"/>
        <path fill="#565988" d="M126.696 181.762c-1.842 3.836.386 5.99.386 5.99-2.24 5.072-9.852 3.191-11.967 2.553-.349-.102-.54-.173-.54-.173s.154-5.3-.384-7.835-.462-13.208-.154-14.513c.308-1.305.46-3.842.46-3.842s-.23-2.994.153-4.453a2.3 2.3 0 0 0-.573-2.265l-.04-.04s-1.688 5.76-2.304 6.755c-.616.994-.843 5.99-.922 6.912-.078.921-3.225 8.603-3.225 8.603s-1.227 3.532-1.456 4.529c-.23.997-1.154 3.842-1.154 3.842l-3.7 7.144c-1.768.768-6.144.154-6.144.154s-.843-1.08-1.996-2.842c-1.154-1.762-1.689-7.985-1.689-7.985s4.223-.078 3.148-4.148c-1.076-4.069.92-7.22.845-8.603-.076-1.383.921-5.912 1.459-6.604.537-.691.46-3.61.305-5.223-.154-1.613-.076-7.295-.076-7.295s.154-2.535.922-3.686c.767-1.151.462-4.456.462-4.456s1.456-.767.459-8.217c-.997-7.45 1.62-17.125 1.62-17.125l.09-1.351.14-2.189s21.96-1.383 23.727.306c.462.468.841 1.012 1.121 1.607a15.999 15.999 0 0 1 1.27 4.088l.921 23.27.922 17.126-.308 12.902s.067 3.221-1.778 7.064z"/>
        <path fill="#000" d="M120.185 135.835l-2.304 49.917-2.766 4.55c-.349-.102-.54-.172-.54-.172s.154-5.302-.384-7.836c-.538-2.535-.462-13.208-.154-14.513.308-1.305.46-3.842.46-3.842s-.23-2.994.153-4.453a2.3 2.3 0 0 0-.573-2.264l.038-.27 6.07-21.117zM95.37 189.44s5.989-2.38 6.91-1.62c.921.759-7.061 1.918-7.061 1.918l.15-.297zM124.932 183.142c-.23.079-6.065 2.162-5.527 4.378.537 2.215 5.527-4.378 5.527-4.378z" opacity=".1"/>
        <path fill="#FFD6D6" d="M106.697 69.521s1.956 4.723.921 7.144c-1.034 2.421 11.17 6.566 11.17 6.566s-3.568-9.216-.113-14.402c3.456-5.185-11.978.692-11.978.692z"/>
        <path fill="#505484" d="M178.162 206.258c-2.361.52-5.47 2.88-5.47 2.88s-5.99 1.268-10.08.692c-4.09-.575-3.396-5.012-.23-6.106 2.197-.757 4.447-2.624 5.622-3.694.519-.478.827-.81.827-.81l11.462-2.305s.186.64.446 1.524c.46 1.559 1.137 3.872 1.396 4.753.403 1.396-1.612 2.548-3.973 3.066zM175.225 197.388s-4.838.518-6.853-.633c-2.016-1.15-4.896.692-4.896.692s-8.293-.173-11.057-1.038c-2.763-.864.403-5.134 4.895-4.723 1.638.149 2.745-.21 3.493-.724a3.68 3.68 0 0 0 1.521-2.28l9.726.575 1.35 3.448 1.821 4.683z"/>
        <path fill="#000" d="M173.553 194.277s-11.303-1.848-12.746-3.315a3.68 3.68 0 0 0 1.521-2.28l9.726.575 1.35 3.448.149 1.572z" opacity=".1"/>
        <path fill="#575988" d="M156.796 129.596l.116 16.874s.402 12.673.402 14.402c0 1.73.057 5.585.057 5.585s.865 4.723 1.383 6.28c.519 1.556.922 8.646.922 8.646s1.21 1.96.691 2.702c-.519.743 2.015 2.362 2.015 2.362s-1.62 2.248-1.726 3.745c-.105 1.497 12.897 3.623 12.897 3.623l-5.065-51.952-4.034-13.016-7.658.749z"/>
        <path fill="#000" d="M156.796 129.596l.116 16.874s.402 12.673.402 14.402c0 1.73.057 5.585.057 5.585s.865 4.723 1.383 6.28c.519 1.556.922 8.646.922 8.646s1.21 1.96.691 2.702c-.519.743 2.015 2.362 2.015 2.362s-1.62 2.248-1.726 3.745c-.105 1.497 12.897 3.623 12.897 3.623l-5.065-51.952-4.034-13.016-7.658.749zM180.739 198.452c-3.763 8.974-12.713 2.048-12.713 2.048s0-.173-.022-.47c.519-.478.827-.81.827-.81l11.462-2.305s.186.654.446 1.537z" opacity=".1"/>
        <path fill="#575988" d="M180.868 197.677c-3.687 9.457-12.842 2.361-12.842 2.361s-.29-4.896.289-7.141c.578-2.246-.635-8.987-.635-8.987s-.692-5.99-1.324-7.372c-.632-1.38-.575-4.147-.575-4.377 0-.23.23-2.075-.29-3.342-.518-1.268-.81-4.378-.81-4.378s0-4.377-.518-6.968l-1.786-8.917-3.226-18.26 1.008-.173 18.054-3.167s3.398 17.293 2.245 19.066c-.249.389-.467 1.24-.648 2.337-.66 3.923-.905 10.967-.905 10.967s2.244 3.513 1.383 5.99c-.862 2.479.81 6.567.81 6.567s.519 16.128-.462 17.742c-.98 1.613.232 8.052.232 8.052z"/>
        <path fill="#D28690" d="M179.14 79.773s-16.355 11.518-12.67 5.758c1.985-3.102 1.62-7.053.843-10.036a23.684 23.684 0 0 0-1.621-4.401s13.896-5.912 12.054-.614a9.93 9.93 0 0 0-.54 3.848 10.27 10.27 0 0 0 1.934 5.445zM149.694 106.153s-6.91-1.997-8.062-.038c-1.15 1.959.346 6.258 2.432 6.95 2.085.691 6.872-2.343 6.872-2.343l-1.242-4.57z"/>
        <path fill="#585B8A" d="M157.603 102.756l-2.88 2.651s-5.01.46-6.45.113c0 0 1.326 8.871-.576 9.966l11.633-2.362-1.727-10.368z"/>
        <path fill="#000" d="M157.603 102.756l-2.88 2.651s-5.01.46-6.45.113c0 0 1.326 8.871-.576 9.966l11.633-2.362-1.727-10.368zM120.631 64.682a8.646 8.646 0 0 1-8.644 8.646c-4.436-2.132-8.645-3.866-8.645-8.646a8.647 8.647 0 0 1 13.058-7.773 8.647 8.647 0 0 1 4.218 7.773h.013z" opacity=".1"/>
        <path fill="#FFD6D6" d="M120.631 64.45a8.628 8.628 0 1 1-16.752 2.914 8.631 8.631 0 0 1 3.872-10.42 8.627 8.627 0 0 1 12.88 7.505z"/>
        <path fill="#000" d="M125.67 117.32c-.856.532-1.75.996-2.678 1.39 0 0-4.376-.636-5.008.113-.632.748-6.214 1.037-6.214 1.037s-8.523-.402-9.79-1.497a5.187 5.187 0 0 0-1.294-.767l.14-2.189s21.961-1.383 23.728.306c.46.469.837 1.012 1.115 1.607z" opacity=".1"/>
        <path fill="#DCE6F2" d="M126.737 115.772c-.173.978-3.745 2.475-3.745 2.475s-4.376-.632-5.008.116c-.632.749-6.214 1.038-6.214 1.038s-8.523-.405-9.79-1.5c-1.267-1.094-4.09-1.621-4.09-1.621s-1.44-10.252-.861-12.497c.578-2.245-.865-8.411-1.21-10.6-.347-2.189.977-8.236 2.59-9.214 1.613-.978 3.917-4.264 5.298-5.242a45.575 45.575 0 0 0 2.825-2.213l.111-.092s.232-1.786 1.154-2.702c.92-.916 9.384 5.818 9.384 5.818s.06.518.635-.46c.13-.219 1.246 1.392 1.44 2.073 0 0 4.606 8.065 4.895 9.727.29 1.662 1.497 7.085 1.726 8.409.06.34.157 1.535.27 3.134.022.314.041.646.065.992.17 2.653.354 6.042.465 8.603 0 .292.024.573.033.843.058.97.067 1.942.027 2.913z"/>
        <path fill="#000" d="M97.493 94.977s3.166 3.859 4.204 3.859c1.037 0-4.204-3.859-4.204-3.859zM104.163 103.272s-5.184 5.645-4.492 6.683c.691 1.037 4.492-6.683 4.492-6.683zM100.362 114.505s5.943-6.51 6.214-8.755l-6.214 8.755zM107.848 114.964s6.854-3.629 7.429-6.51c.575-2.88-7.43 6.51-7.43 6.51zM116.544 79.946l-.951 2.302 1.583.748 1.556 4.35s4.29 8.582 4.117 13.046c-.173 4.464.778 11.173.778 11.173l2.475-.46-1.167-13.129a18.942 18.942 0 0 0-1.508-5.893c-1.977-4.528-5.657-12.889-5.889-12.889-.316 0-.095.117-.095.117l-.9.635z" opacity=".1"/>
        <path fill="#575989" d="M116.774 79.713l-.951 2.305 1.585.749 1.554 4.35s4.29 8.582 4.117 13.045c-.173 4.464.778 11.173.778 11.173l2.477-.46-1.17-13.128a18.869 18.869 0 0 0-1.504-5.893c-1.978-4.532-5.657-12.89-5.887-12.89-.319 0-.097.117-.097.117l-.902.632z"/>
        <path fill="#FFD6D6" d="M144.817 113.564c-1.204-.091-4.095-1.553-5.243-2.161l-.486-.27.06-4.461c.283-.167.577-.316.88-.446 1.534-.67 4.681-1.581 6.259 1.35 2.129 3.932.057 6.091-1.47 5.988z"/>
        <path fill="#000" d="M118.675 58.983c-.123.078-.26.133-.402.165-1.002.219-2.142-.643-3.001-.09-.525.341-.646 1.046-.716 1.668-.123 1.08-.245 2.154-.368 3.22-.025.38-.106.754-.237 1.111-.425.97-1.589 1.427-2.65 1.41a1.58 1.58 0 0 1-1.143-.378c-.187-.189-.287-.453-.492-.626-1.35-1.133-1.761 1.642-1.405 2.431.573 1.29 2.607 2.532 1.753 4.17a1.562 1.562 0 0 1-.626.63 8.646 8.646 0 1 1 9.287-13.71z" opacity=".1"/>
        <path fill="#353045" d="M109.436 65.452c.203.17.306.435.492.624.316.272.727.408 1.143.378 1.061.016 2.226-.437 2.647-1.413.135-.355.216-.729.24-1.108l.368-3.22c.07-.622.19-1.327.716-1.668.859-.54 1.999.308 3.001.09.75-.191 1.223-.931 1.08-1.692-.115-.516-.51-.924-.712-1.416a9.253 9.253 0 0 1-.295-1.154c-.559-2.097-3.02-3.275-5.16-2.923-1.188.197-2.293.764-3.485.937-.853.125-1.726.043-2.588.135-.8.083-1.579.313-2.296.679-.188.083-.354.209-.486.367a2.03 2.03 0 0 0-.243.692c-.29 1.08-1.219 1.878-1.891 2.788a6.645 6.645 0 0 0-1.28 3.597c-.027.331.004.665.091.986.057.19.146.373.19.567.132.592-.17 1.184-.32 1.773a3.546 3.546 0 0 0 .19 2.253c1.037 2.386 4.454 3.183 5.165 5.688.63.303 1.312.486 2.01.54.697.014 1.448-.286 1.772-.905.85-1.62-1.18-2.88-1.753-4.166-.36-.792.043-3.564 1.404-2.43z"/>
        <path fill="#000" d="M177.76 70.48a9.93 9.93 0 0 0-.541 3.848c-.416.354-.87-.705-1.35-.432-1.32.762-2.843 2.575-4.475 2.575a8.96 8.96 0 0 1-4.07-.976 23.684 23.684 0 0 0-1.622-4.401s13.9-5.912 12.057-.614z" opacity=".1"/>
        <path fill="#D28690" d="M180.369 67.024a8.986 8.986 0 1 1-17.97 0 8.986 8.986 0 1 1 17.97 0z"/>
        <path fill="#F0F3F7" d="M179.985 81.77s-1.691 1.842-1.92 1.994c-.23.15-5.133 20.805-5.22 21.046-.086.24-5.838 18.89-5.838 18.89l-9.214 4.531.77-22.81 6.753-18.812s2.229-2.535 2.918-3.456c.689-.921 9.29-6.453 9.29-6.453l1.47 3.03.991 2.04z"/>
        <path fill="#000" d="M178.767 80.191l-10.595 7.588-.17-4.167c.691-.921 9.29-6.45 9.29-6.45l1.475 3.03z" opacity=".1"/>
        <path fill="#F0F3F7" d="M178.996 79.73l-10.595 7.587-.165-4.164c.692-.924 9.29-6.453 9.29-6.453l1.47 3.03z"/>
        <path fill="#585B8A" d="M167.883 81.3l.353 1.853-2.369 2.407 1.891-4.234s-4.052 2.824-5.268 3.572c-1.215.749-2.43 3.283-2.477 3.975-.046.692-1.958 11.116-1.958 11.116s-1.44 3.859-1.035 4.953c.405 1.095-2.188 35.597-2.188 35.597a5.133 5.133 0 0 1 3.463-2.656l-.924-20.39s1.124-13.564 1.18-13.737l2.621-8.036 6.71-14.42z"/>
        <path fill="#000" d="M168.469 83.383l-.184 3.782s-2.564 8.093-3.425 9.417c-.862 1.324-3.485 9.217-3.485 9.217l-1.478 13.71-2.534 1.154-1.248-2.3 2.075-13.24s3.914-11.173 4.492-12.326l2.888-6.085 2.899-3.33z" opacity=".1"/>
        <path fill="#663D5C" d="M168.236 83.153l-.18 3.783s-2.564 8.092-3.429 9.416c-.864 1.324-3.482 9.217-3.482 9.217l-1.47 13.708-2.533 1.15-1.267-2.301 2.074-13.24s3.915-11.176 4.49-12.327l2.91-6.077 2.887-3.33z"/>
        <path fill="#D28690" d="M138.369 112.027l4.952 3.429s3.493-1.96 1.459-3.226c-2.035-1.268-3.84-1.46-4.493-1.46-.654 0-1.918 1.257-1.918 1.257zM142.067 105.688a.762.762 0 0 0-.359.651c0 1.051.119 3.834 1 2.578 1.08-1.538.883-2.918 2.534-1.921a9.726 9.726 0 0 1 2.647 2.432l-.46-3.302s-3.392-1.676-5.362-.438z"/>
        <path fill="#000" d="M180.463 146.01c-.248.39-.467 1.241-.648 2.338-10.098 3.029-17.487-3.375-17.487-3.375a88.176 88.176 0 0 1-2.188-9.214c-.18-1.064-.14-3.129.027-5.647l18.054-3.167s3.396 17.28 2.242 19.066z" opacity=".1"/>
        <path fill="#585B8A" d="M190.829 94.458c-.46 1.5-.287 4.55-.287 4.55l-4.146 19.585s-2.016 15.091-2.361 17.107c-.346 2.015-.922 10.886-.922 10.886-11.748 5.761-20.8-2.072-20.8-2.072a88.319 88.319 0 0 1-2.19-9.217c-.577-3.42 1.125-17.126 1.93-23.213.24-1.803.402-2.937.402-2.937l3.023-11.233s3.715-9.476 5.098-12.24c1.383-2.764 6.937-8.974 6.937-8.974.69-.437 1.791 1.108 2.61 2.516a29.235 29.235 0 0 1 1.08 2.054s6.91 2.993 7.945 4.593c1.035 1.6.865 4.896.981 5.07.116.172 1.162 2.028.7 3.525z"/>
        <path fill="#000" d="M174.534 87.49s.518 3.053-.81 3.974c-1.284.892-10.836 19.68-11.43 20.852.24-1.805.402-2.94.402-2.94l3.023-11.23s3.717-9.476 5.097-12.242c1.38-2.767 6.94-8.974 6.94-8.974.69-.438 1.789 1.108 2.607 2.516-1.234 2.564-3.809 7.411-5.83 8.044z" opacity=".1"/>
        <path fill="#585B8A" d="M174.304 87.26s.516 3.053-.81 3.975c-1.327.921-10.833 19.676-11.436 20.849.24-1.803.403-2.937.403-2.937l3.023-11.233s3.714-9.476 5.097-12.24c1.383-2.764 6.938-8.974 6.938-8.974.689-.437 1.79 1.108 2.61 2.516-1.23 2.562-3.807 7.412-5.825 8.044z"/>
        <path fill="#6C63FF" d="M188.008 114.85l-3.25 16.913v.003l-.31 1.618v.003l-.7 3.64-2.985-.633-1.391-.294-19.253-4.08-1.416-.3-3.231-.684.632-4.199.262-1.746 2.332-15.482z"/>
        <path fill="#D28690" d="M170.041 128.674s-7.659 2.765-5.99 6.048c1.67 3.283 12.382-2.535 12.382-2.535l-6.392-3.513z"/>
        <path fill="#000" d="M175.511 152.23c0 .23.29 3.17 1.44 4.205 1.151 1.035-1.44-4.204-1.44-4.204zM167.796 162.655s1.38 3.802 6.851 5.359c5.47 1.556-6.85-5.359-6.85-5.359zM180.369 67.024a8.985 8.985 0 0 1-4.504 7.79 4.782 4.782 0 0 1-1.35-1.126c-.392-.476-.697-1.124-.462-1.692.189-.457.689-.746.81-1.218.057-.29.043-.588-.043-.87-.1-.446-.195-.892-.292-1.335-.084-.379-.232-.824-.608-.916-.375-.092-.689.221-.983.454-.721.57-2.104.956-2.972.489-.867-.468-.624-2.032-.764-2.878a.503.503 0 0 0-.19-.381.789.789 0 0 0-.39-.027c-.468 0-.844-.419-.979-.867a7.467 7.467 0 0 1-.157-1.392c-.05-.467-.221-.962-.62-1.202a1.92 1.92 0 0 0-1.025-.168l-1.694.019a8.984 8.984 0 0 1 16.21 5.328l.013-.008z" opacity=".1"/>
        <path fill="#663D5C" d="M173.177 68.11c.295-.232.62-.54.984-.45.364.089.521.54.605.913l.292 1.332c.086.283.102.582.046.873-.138.475-.635.761-.827 1.218-.235.568.073 1.216.462 1.689a4.862 4.862 0 0 0 2.78 1.662c.284.068.58.074.867.019.643-.149 1.08-.74 1.426-1.295 1.786-2.783 3.323-5.833 3.636-9.125a5.854 5.854 0 0 0-.091-2.013 6.756 6.756 0 0 0-.616-1.472 11.89 11.89 0 0 0-1.737-2.63c-1.23-1.323-2.926-2.137-4.669-2.618a15.806 15.806 0 0 0-6.027-.472c-.54.062-1.059.15-1.59.186a16.01 16.01 0 0 1-2.005-.032l-3.977-.238c-.227.462 0 1.01.27 1.443.27.432.606.88.584 1.394-.022.513-.386.919-.667 1.351-.281.432-.495.992-.214 1.413.281.422.854.449 1.351.443l2.004-.021c.35-.036.702.025 1.019.175.4.24.57.738.621 1.203.011.467.064.933.157 1.391.138.449.51.873.978.868a.73.73 0 0 1 .392.03c.116.091.185.23.189.378.14.845-.12 2.407.764 2.877.884.47 2.272.079 2.993-.491z"/>
        <path fill="#000" d="M184.597 85.86a4.403 4.403 0 0 0-4.633 2.96c-1.081 3.077-2.883 8.63-2.432 10.824.635 3.11 1.383 8.295 1.383 8.295s3.283 1.891 1.621 3.799c-1.661 1.908-2.131 4.61-2.131 4.61s-2.132.921-2.59 2.88c-.46 1.959-3.572 4.664-3.572 4.664l-4.663 4.666s7.715 7.836 9.271 8.236l4.78-5.588 5.643-7.487 4.895-5.134s1.15-2.702.575-7.836-2.823-10.022-2.823-10.022l.173-1.73s.53-12.388-5.497-13.137z" opacity=".1"/>
        <path fill="#585B8A" d="M185.056 85.86a4.403 4.403 0 0 0-4.628 2.96c-1.08 3.077-2.882 8.63-2.431 10.824.632 3.11 1.38 8.295 1.38 8.295s3.283 1.891 1.621 3.799c-1.661 1.908-2.129 4.61-2.129 4.61s-2.131.921-2.593 2.88c-.462 1.959-3.569 4.664-3.569 4.664l-4.665 4.666s7.715 7.836 9.271 8.236l4.78-5.588 5.63-7.487 4.894-5.134s1.154-2.702.576-7.836c-.579-5.134-2.82-10.022-2.82-10.022l.172-1.73s.538-12.388-5.49-13.137z"/>
        <path fill="#000" d="M180.234 103.389s4.895 5.987 6.97 4.663c2.074-1.324-6.97-4.663-6.97-4.663zM182.076 98.779c.519.173 4.782 6.107 6.97 5.404 2.188-.703-6.97-5.404-6.97-5.404zM183.286 108.971s.29 3.4 3.801 2.937c3.512-.462-3.8-2.937-3.8-2.937zM167.766 81.556l-1.899 4.234 2.372-2.407z" opacity=".1"/>
        <path fill="#F0F3F7" d="M167.766 81.326l-1.899 4.234 2.372-2.407z"/>
        <path fill="#000" d="M160.119 132.02l-1.416-.3-2.599-4.883.262-1.746zM184.759 131.766l-.311 1.618v.003l-3.685 3.007-1.391-.294z" opacity=".3"/>
        <path fill="#000" d="M126.701 112.87c-.713.119-1.404.227-2.036.308-3.512.462-11.865-3.686-11.865-3.686s-10.193-8.524-13.13-16.587c-2.936-8.063 3.512-9.274 3.512-9.274 2.432-1.383 7.719 2.475 8.467 3.11.748.635 1.383 2.246 1.324 3.283-.06 1.038 1.729 2.362 1.729 2.362s3.052 5.299 3.8 5.874c.749.576.922 1.094 1.151 2.075.23.981 2.245 1.786 3.11 1.727.864-.06 1.89.289 1.89.748 0 .37.846.554 1.54.614.206 2.953.408 6.822.508 9.446z" opacity=".1"/>
        <path fill="#000" d="M126.669 112.027c-.54.086-1.059.165-1.545.23-3.512.462-11.862-3.686-11.862-3.686s-10.193-8.525-13.13-16.588c-2.936-8.063 3.512-9.273 3.512-9.273 2.432-1.384 7.716 2.475 8.464 3.11.748.635 1.383 2.245 1.327 3.283-.057 1.037 1.726 2.361 1.726 2.361s3.052 5.3 3.8 5.875c.749.575.922 1.094 1.154 2.075.233.98 2.245 1.783 3.11 1.726.864-.056 1.89.29 1.89.749 0 .27.482.451 1.016.54.022.314.04.646.065.992.179 2.656.362 6.044.473 8.606zM140.028 106.226l-.22 5.177h-.234l-.486-.27.06-4.461c.283-.167.577-.316.88-.446z" opacity=".1"/>
        <path fill="#DCE6F2" d="M103.182 83.17s-6.448 1.21-3.511 9.273c2.936 8.062 13.129 16.59 13.129 16.59s8.35 4.145 11.865 3.686c3.514-.46 8.866-1.67 9.557-1.497.692.173 5.357.173 5.357.173l.23-5.404-5.403-.29-2.764-.575s-.98-.81-1.556-.692c-.575.12-1.783-.691-1.783-.691s-.924-.749-1.62-.749c-.697 0-2.016-.173-2.016-.632 0-.46-1.037-.81-1.89-.749-.854.062-2.894-.748-3.132-1.74-.238-.991-.402-1.497-1.15-2.072-.749-.576-3.802-5.877-3.802-5.877s-1.785-1.324-1.729-2.36c.057-1.034-.575-2.65-1.323-3.285-.749-.635-6.043-4.49-8.459-3.11z"/>
        <path fill="#000" d="M119.77 101.716s-2.478 2.478-1.846 2.937l1.845-2.937zM122.417 103.675s-3.226 2.478-2.361 2.65c.864.174 2.36-2.65 2.36-2.65zM116.944 107.35c.462.232 7.313 4.323 9.906 4.264l-9.906-4.264zM117.408 80.002s-1.21 3.975-1.672 3.975c-.362 0-6.44-4.923-8.977-6.993l.111-.092s.23-1.786 1.15-2.702c.922-.916 9.388 5.812 9.388 5.812z" opacity=".1"/>
        <path fill="#DCE6F2" d="M117.176 79.54s-1.208 3.975-1.67 3.975c-.364 0-6.442-4.923-8.98-6.993l.112-.092s.232-1.786 1.153-2.702c.921-.916 9.385 5.812 9.385 5.812z"/>
        <g fill="#000" opacity=".15">
            <path d="M100.867 66.695c.81 1.85 3.042 2.748 4.336 4.223-.77-1.813-3.02-2.702-4.336-4.223zM109.126 70.959c-.322.618-1.08.918-1.772.905a5.17 5.17 0 0 1-1.778-.454c.203.3.358.63.46.978.63.303 1.311.486 2.01.54.699.017 1.45-.283 1.771-.905.516-.986-.021-1.83-.65-2.626a1.716 1.716 0 0 1-.041 1.562zM119.15 57.416c-.115-.519-.51-.927-.712-1.416a8.843 8.843 0 0 1-.295-1.156 3.583 3.583 0 0 0-.83-1.484c.055.133.101.27.139.408.075.394.176.782.302 1.162.203.49.597.897.713 1.416.142.76-.33 1.5-1.08 1.691-1 .22-2.14-.645-2.999-.089-.527.338-.648 1.043-.718 1.665-.121 1.08-.244 2.155-.368 3.223a3.865 3.865 0 0 1-.238 1.108c-.424.973-1.588 1.43-2.65 1.413a1.59 1.59 0 0 1-1.14-.378 7.53 7.53 0 0 0-.494-.627c-1.35-1.135-1.761 1.64-1.405 2.432.179.356.4.689.66.992-.298-.892.118-3.46 1.436-2.36.176.2.34.41.492.628.317.27.727.405 1.143.378 1.062.016 2.226-.44 2.65-1.413.133-.357.214-.731.238-1.11.122-1.082.245-2.155.367-3.222.07-.621.192-1.326.716-1.664.862-.557 2.002.308 3.001.086a1.465 1.465 0 0 0 1.073-1.683z"/>
        </g>
        <path fill="#000" d="M178.961 74.677a2.088 2.088 0 0 1-.867-.022 4.862 4.862 0 0 1-2.777-1.66c-.392-.475-.7-1.123-.462-1.69.19-.457.686-.744.81-1.22.057-.29.04-.59-.045-.872l-.292-1.332c-.084-.378-.23-.824-.605-.913-.376-.09-.69.218-.984.45-.721.571-2.107.96-2.971.49-.865-.47-.624-2.032-.765-2.878a.505.505 0 0 0-.189-.378.77.77 0 0 0-.394-.03c-.468 0-.84-.419-.978-.867a7.673 7.673 0 0 1-.154-1.392c-.054-.464-.222-.962-.624-1.202-.318-.15-.67-.21-1.019-.176l-2.004.022c-.495 0-1.08-.033-1.35-.443-.271-.41-.071-.995.212-1.413.284-.42.643-.835.668-1.351.024-.517-.31-.962-.584-1.395a2.5 2.5 0 0 1-.34-.772l-.576-.036c-.224.46 0 1.008.27 1.443.27.435.608.881.584 1.392-.024.51-.384.921-.667 1.35-.284.43-.492.993-.21 1.414.28.422.85.451 1.35.446l2.004-.024a1.94 1.94 0 0 1 1.019.178c.402.24.572.738.624 1.202.008.468.06.934.157 1.392.135.446.51.873.977.865a.791.791 0 0 1 .392.03.508.508 0 0 1 .19.38c.14.843-.12 2.408.764 2.878.883.47 2.26.081 2.971-.49.295-.232.622-.54.986-.453.365.086.522.54.603.913l.294 1.335c.086.283.1.583.044.873-.136.473-.635.762-.824 1.216-.235.567.07 1.218.462 1.691a4.862 4.862 0 0 0 2.796 1.66c.284.067.58.074.867.02a2.037 2.037 0 0 0 1.124-.853 1.502 1.502 0 0 1-.487.222z" opacity=".1"/>
        <ellipse cx="55.026" cy="193.007" fill="#6C63FF" opacity=".1" rx="6.529" ry="1.002"/>
        <ellipse cx="283.008" cy="166.943" fill="#6C63FF" opacity=".1" rx="6.529" ry="1.002"/>
        <ellipse cx="216.441" cy="207.339" fill="#6C63FF" opacity=".1" rx="18.91" ry="2.902"/>
        <ellipse cx="270.198" cy="195.045" fill="#6C63FF" opacity=".1" rx="14.75" ry="2.264"/>
        <ellipse cx="267.769" cy="217.607" fill="#6C63FF" opacity=".1" rx="25.013" ry="3.84"/>
        <ellipse cx="27.079" cy="220.985" fill="#6C63FF" opacity=".1" rx="18.91" ry="2.902"/>
        <path fill="#6C63FF" d="M55.323 161.08s.74.967-.34 2.432c-1.08 1.464-1.972 2.702-1.621 3.604 0 0 1.62-2.702 2.972-2.75 1.35-.049.45-1.654-1.01-3.286z"/>
        <path fill="#000" d="M55.323 161.08c.066.092.117.194.152.303 1.296 1.524 1.985 2.942.74 2.972-1.16.032-2.55 2.108-2.883 2.632.01.04.023.08.038.119 0 0 1.621-2.702 2.972-2.751 1.35-.049.443-1.643-1.019-3.275z" opacity=".1"/>
        <path fill="#6C63FF" d="M51.417 161.08s-.74.967.34 2.432c1.081 1.464 1.975 2.702 1.621 3.604 0 0-1.62-2.702-2.958-2.75-1.337-.049-.473-1.654.997-3.286z"/>
        <path fill="#000" d="M51.417 161.08a1.192 1.192 0 0 0-.151.303c-1.297 1.524-1.986 2.942-.74 2.972 1.158.032 2.55 2.108 2.885 2.632a1.03 1.03 0 0 1-.04.119s-1.622-2.702-2.959-2.751c-1.337-.049-.465-1.643 1.005-3.275z" opacity=".1"/>
        <ellipse cx="53.37" cy="173.328" fill="#6C63FF" opacity=".1" rx="7.734" ry="1.186"/>
        <path fill="#65617D" d="M57.352 165.809l-.038.302-.051.427-.022.179-.051.426-.024.179-.052.427-.591 4.863c-.052.433-.76.77-1.621.77h-3.064c-.853 0-1.561-.337-1.62-.77l-.592-4.863-.051-.427-.022-.179-.054-.426-.022-.179-.051-.427-.038-.302c-.03-.246.354-.452.838-.452h6.291c.481 0 .865.206.835.452z"/>
        <path fill="#6C63FF" d="M277.862 157.338s-.924 4.301 3.185 4.81l.254-.479s-3.185-2.996-3.44-4.331z"/>
        <path fill="#6C63FF" d="M282.608 161.634l-.956.203-.094.021s-2.55-2.07-2.518-6.69c.34.681.749 1.327 1.218 1.927 1.01 1.337 2.159 3.12 2.35 4.539z"/>
        <path fill="#6C63FF" d="M282.93 162.077a.6.6 0 0 1-.513.068c-2.453-.573-1.621-8.569-1.621-8.569.135.063.27 1.081.848 2.394.986 2.305 2.075 5.529 1.286 6.107zM288.37 157.338s.16 4.301-3.949 4.81l-.257-.487s3.953-2.988 4.207-4.323z"/>
        <path fill="#6C63FF" d="M287.193 155.176c.032 4.62-3.28 6.69-3.28 6.69l-.097-.021-.954-.203c.19-1.419 1.351-3.202 2.348-4.54a10.394 10.394 0 0 1 1.983-1.926z"/>
        <path fill="#6C63FF" d="M283.802 161.661c-.145.18-.33.323-.54.419a1.05 1.05 0 0 1-.202.067c-.603.14-.81-.294-.778-1.035.056-1.315.883-3.599 1.62-5.31.356-.838.88-1.595 1.54-2.223 0 0-.038 6.223-1.64 8.082z"/>
        <path fill="#6C63FF" d="M283.116 150.772s-2.739 9.727-.38 11.18c2.358 1.455.985-10.321.38-11.18z"/>
        <path fill="#000" d="M277.862 157.338s-.924 4.301 3.185 4.81l.254-.479s-3.185-2.996-3.44-4.331z" opacity=".1"/>
        <path fill="#000" d="M282.608 161.634l-.956.203-.094.021s-2.55-2.07-2.518-6.69c.34.681.749 1.327 1.218 1.927 1.01 1.337 2.159 3.12 2.35 4.539z" opacity=".1"/>
        <path fill="#000" d="M282.93 162.077a.6.6 0 0 1-.513.068c-2.453-.573-1.621-8.569-1.621-8.569.135.063.27 1.081.848 2.394.986 2.305 2.075 5.529 1.286 6.107zM288.37 157.338s.16 4.301-3.949 4.81l-.257-.487s3.953-2.988 4.207-4.323z" opacity=".1"/>
        <path fill="#000" d="M287.193 155.176c.032 4.62-3.28 6.69-3.28 6.69l-.097-.021-.954-.203c.19-1.419 1.351-3.202 2.348-4.54a10.394 10.394 0 0 1 1.983-1.926z" opacity=".1"/>
        <path fill="#000" d="M283.802 161.661c-.145.18-.33.323-.54.419a1.05 1.05 0 0 1-.202.067c-.603.14-.81-.294-.778-1.035.056-1.315.883-3.599 1.62-5.31.356-.838.88-1.595 1.54-2.223 0 0-.038 6.223-1.64 8.082z" opacity=".1"/>
        <path fill="#000" d="M283.116 150.772s-2.739 9.727-.38 11.18c2.358 1.455.985-10.321.38-11.18z" opacity=".1"/>
        <path fill="#6C63FF" d="M277.862 157.338s-.54 4.301 3.566 4.81l.254-.479s-3.566-2.996-3.82-4.331z"/>
        <path fill="#6C63FF" d="M282.99 161.634l-.957.203-.095.021s-2.93-2.07-2.906-6.682c0 0 .75.81 1.599 1.927 1.018 1.329 2.166 3.112 2.358 4.531z"/>
        <path fill="#000" d="M282.99 161.634l-.957.203c-.905-.795-1.264-2.87-1.394-4.742 1.01 1.337 2.158 3.12 2.35 4.539z" opacity=".1"/>
        <path fill="#6C63FF" d="M283.313 162.077a.605.605 0 0 1-.516.068c-2.452-.573-2.004-8.569-2.004-8.569.135.063.665 1.081 1.23 2.394.99 2.305 2.077 5.529 1.29 6.107zM288.37 157.338s.54 4.301-3.565 4.81l-.254-.479s3.566-2.996 3.82-4.331z"/>
        <path fill="#6C63FF" d="M287.193 155.176c.032 4.62-2.899 6.69-2.899 6.69l-.094-.021-.957-.203c.19-1.419 1.351-3.202 2.35-4.54.849-1.115 1.6-1.926 1.6-1.926z"/>
        <path fill="#000" d="M285.593 157.095c-.124 1.745-.443 3.666-1.218 4.563a1.372 1.372 0 0 1-.175.179l-.957-.203c.19-1.419 1.34-3.202 2.35-4.54z" opacity=".1"/>
        <path fill="#6C63FF" d="M284.183 161.661c-.144.18-.33.324-.54.419a1.08 1.08 0 0 1-.2.067c-.605.14-.81-.294-.78-1.035.059-1.315.885-3.599 1.62-5.31.54-1.228 1.03-2.16 1.16-2.223 0-.003.342 6.223-1.26 8.082z"/>
        <path fill="#000" d="M283.313 162.077a.648.648 0 0 1-.389-.124c-1.153-.719-1.177-3.416-.902-5.983.992 2.305 2.078 5.529 1.291 6.107z" opacity=".1"/>
        <path fill="#000" d="M284.183 161.661c-.132.29-.31.44-.54.419a.727.727 0 0 1-.327-.124c-.3-.206-.529-.501-.654-.844.06-1.315.886-3.599 1.621-5.31.265 2.37.354 4.884-.1 5.859z" opacity=".1"/>
        <path fill="#6C63FF" d="M283.116 150.772s-2.355 9.727 0 11.18c2.356 1.455.605-10.321 0-11.18z"/>
        <path fill="#4B4770" d="M287.639 161.477h-9.81v1.624h1.497l.038.192.6 3.153h5.702l.6-3.153.035-.192h1.338z"/>
        <path fill="#000" d="M287.639 161.477h-9.81v1.624h1.497l.038.192.6 3.153h5.702l.6-3.153.035-.192h1.338z" opacity=".1"/>
        <path fill="#4B4770" d="M286.812 162.431l-.165.862-.6 3.153h-5.702l-.6-3.153-.165-.862z"/>
        <path fill="#000" d="M286.812 162.431l-.165.862h-6.902l-.165-.862z" opacity=".1"/>
        <path fill="#4B4770" d="M278.21 161.477h9.809v1.624h-9.809z"/>
        <path fill="#6C63FF" d="M37.656 189.265a4.713 4.713 0 0 0-.616 1.162c-.038.1-.076.216-.114.327a1.178 1.178 0 0 0-.213-.076 2.971 2.971 0 0 0-.965-.08c0-.128.017-.271.02-.398.04-1.424-.128-3.407-1.486-2.567-1.303.81-.373 2.162.467 3.026.073.076.146.146.216.214-.767.54-.913 1.818-1.04 3.145s-1.253 2.778-2.002 3.602c-.075.084-.143.16-.21.23a2.742 2.742 0 0 0-2.175-.56c-.03-.116-.065-.238-.1-.365-.605-2.186-1.861-5.971-3.463-6.8l.21-.27c.681-.89 1.448-2.214.316-2.552-1.132-.337-1.234 1.146-1.172 2.26.01.14.022.272.032.397-.457.02-.885.23-1.183.578l-.175-.208c-.919-1.081-2.602-2.802-3.113-1.503-.475 1.21 1.008 2.784 2.05 3.694l.066.057c-.7 2.84 2.355 5.155 4 6.169l.214.13c-2.27 2.674-3.671 7.69-3.671 7.69l6.354 1.134s4.214-3.637 3.674-7.052h.043c4.211-.843 5.168-5.334 4.511-8l.076-.03a4.768 4.768 0 0 0 1.95-1.476c1.178-1.635-1.286-3.483-2.501-1.878z"/>
        <path fill="#000" d="M37.656 189.265a4.713 4.713 0 0 0-.616 1.162c-.038.1-.076.216-.114.327a1.178 1.178 0 0 0-.213-.076 2.971 2.971 0 0 0-.965-.08c0-.128.017-.271.02-.398.04-1.424-.128-3.407-1.486-2.567-1.303.81-.373 2.162.467 3.026.073.076.146.146.216.214-.767.54-.913 1.818-1.04 3.145s-1.253 2.778-2.002 3.602c-.075.084-.143.16-.21.23a2.742 2.742 0 0 0-2.175-.56c-.03-.116-.065-.238-.1-.365-.605-2.186-1.861-5.971-3.463-6.8l.21-.27c.681-.89 1.448-2.214.316-2.552-1.132-.337-1.234 1.146-1.172 2.26.01.14.022.272.032.397-.457.02-.885.23-1.183.578l-.175-.208c-.919-1.081-2.602-2.802-3.113-1.503-.475 1.21 1.008 2.784 2.05 3.694l.066.057c-.7 2.84 2.355 5.155 4 6.169l.214.13c-2.27 2.674-3.671 7.69-3.671 7.69l6.354 1.134s4.214-3.637 3.674-7.052h.043c4.211-.843 5.168-5.334 4.511-8l.076-.03a4.768 4.768 0 0 0 1.95-1.476c1.178-1.635-1.286-3.483-2.501-1.878z" opacity=".1"/>
        <path fill="#6C63FF" d="M25.007 191.113l-.742 2.162s-.414-.292-.935-.751c-1.043-.91-2.526-2.483-2.05-3.694.51-1.3 2.193.416 3.112 1.502.37.433.615.781.615.781zM26.574 189.857c-.225.297-.467.582-.724.854-.063-.38-.107-.762-.132-1.146-.062-1.113.057-2.591 1.172-2.259 1.116.333.365 1.662-.316 2.55zM36.17 190.2a15.702 15.702 0 0 1-.092 1.289 9.434 9.434 0 0 1-.927-.83c-.84-.872-1.769-2.218-.467-3.026 1.345-.843 1.513 1.143 1.486 2.567zM40.546 191.138a4.768 4.768 0 0 1-1.95 1.475 5.84 5.84 0 0 1-.654.238l-.875-1.23c.092-.406.213-.805.362-1.194.15-.414.357-.805.616-1.162 1.21-1.605 3.68.243 2.501 1.873z"/>
        <path fill="#000" d="M24.392 190.332c.37.433.615.768.615.768l-.742 2.161s-.414-.291-.935-.75a4.243 4.243 0 0 1 .837-1.911c.073-.09.152-.181.225-.268zM26.574 189.857c-.225.297-.467.582-.724.854-.063-.38-.107-.762-.132-1.146.309.006.608.108.856.292z" opacity=".1"/>
        <path fill="#6C63FF" d="M30.227 198.493l-1.848.81s-.403-.194-.983-.556c-1.943-1.195-5.846-4.202-3.242-7.747s4.8 2.813 5.673 5.923c.262.945.4 1.57.4 1.57z"/>
        <path fill="#000" d="M35.138 190.66a1.518 1.518 0 0 1 1.018-.46c-.021.716-.091 1.289-.091 1.289a9.434 9.434 0 0 1-.927-.83zM38.601 192.613a5.84 5.84 0 0 1-.654.238l-.875-1.23c.092-.406.213-.805.362-1.194.56.33.975 1.151 1.167 2.186z" opacity=".1"/>
        <path fill="#6C63FF" d="M34.009 200.643c-.1.022-.206.041-.31.057-6.195.94-2.043-2.402-2.043-2.402s.27-.27.656-.678c.749-.824 1.872-2.267 2.002-3.602.195-2.008.419-3.89 2.788-3.34 2.326.546 2.772 8.79-3.093 9.965z"/>
        <path fill="#D4DFEC" d="M22.057 216.069h11.835v3.113H22.057z"/>
        <path fill="#D4DFEC" d="M20.177 205.953H35.64v10.862H20.177z"/>
        <path fill="#000" d="M22.057 216.069h11.835v3.113H22.057z" opacity=".1"/>
        <path fill="#000" d="M20.177 205.953H35.64v10.862H20.177z" opacity=".1"/>
        <path fill="#D4DFEC" d="M22.835 216.069H34.67v3.113H22.835z"/>
        <path fill="#000" d="M29.827 196.925c.27.93.4 1.568.4 1.568l-1.848.81s-.403-.194-.983-.556c.724-.916 1.54-1.608 2.43-1.822zM34.009 200.643c-.1.022-.206.041-.31.057-6.195.94-2.043-2.402-2.043-2.402s.27-.27.656-.678c1.156.927 1.635 1.97 1.697 3.023z" opacity=".1"/>
        <path fill="#6C63FF" d="M23.938 206.57s3.468-12.43 8.334-8.596c4.865 3.834-1.98 9.727-1.98 9.727l-6.354-1.132z"/>
        <ellipse cx="25.688" cy="192.948" fill="#000" opacity=".1" rx="1" ry="1"/>
        <ellipse cx="25.656" cy="194.764" fill="#000" opacity=".1" rx="1" ry="1"/>
        <ellipse cx="36.94" cy="193.305" fill="#000" opacity=".1" rx="1" ry="1"/>
        <ellipse cx="27.863" cy="202.613" fill="#000" opacity=".1" rx="1" ry="1"/>
        <ellipse cx="36.129" cy="196.32" fill="#000" opacity=".1" rx="1" ry="1"/>
        <ellipse cx="32.11" cy="200.344" fill="#000" opacity=".1" rx="1" ry="1"/>
        <ellipse cx="27.017" cy="193.726" fill="#000" opacity=".1" rx="1" ry="1"/>
        <ellipse cx="35.87" cy="194.472" fill="#000" opacity=".1" rx="1" ry="1"/>
        <ellipse cx="34.541" cy="197.487" fill="#000" opacity=".1" rx="1" ry="1"/>
        <ellipse cx="30.456" cy="202.321" fill="#000" opacity=".1" rx="1" ry="1"/>
        <ellipse cx="29.613" cy="200.408" fill="#000" opacity=".1" rx="1" ry="1"/>
        <ellipse cx="27.601" cy="196.093" fill="#000" opacity=".1" rx="1" ry="1"/>
        <path fill="#000" d="M22.835 216.069H34.67v1.138H22.835z" opacity=".1"/>
        <path fill="#D4DFEC" d="M20.955 205.953h15.463v10.862H20.955z"/>
        <ellipse cx="30.975" cy="204.072" fill="#000" opacity=".1" rx="1" ry="1"/>
        <ellipse cx="28.641" cy="204.559" fill="#000" opacity=".1" rx="1" ry="1"/>
        <ellipse cx="13.507" cy="14.051" fill="#6C63FF" opacity=".1" rx="2.826" ry="2.826"/>
        <ellipse cx="284.888" cy="102.972" fill="#6C63FF" opacity=".1" rx="3.782" ry="3.783"/>
        <ellipse cx="292.18" cy="94.866" fill="#6C63FF" opacity=".1" rx="2.761" ry="2.761"/>
        <ellipse cx="18.37" cy="3.783" fill="#6C63FF" opacity=".1" rx="3.782" ry="3.783"/>
        <ellipse cx="3.782" cy="21.076" fill="#6C63FF" opacity=".1" rx="3.782" ry="3.783"/>
    </g>
</svg>
